<svg width="641" height="628" viewBox="0 0 641 628" fill="none" xmlns="http://www.w3.org/2000/svg">
<path fill-rule="evenodd" clip-rule="evenodd" d="M293 1C287.2 1.5 279.4 2.4 275.5 3C271.6 3.6 263.6 5 257.5 6.1C251.4 7.3 240.2 9.9 232.5 12C224.8 14.2 213.6 17.7 207.5 19.8C201.4 22 191.8 25.9 186 28.4C180.2 31 169 36.5 161 40.7C153 44.8 141.3 51.7 135 56C128.7 60.3 119 67.6 113.5 72.1C108 76.6 97.9001 86 91.0001 92.9C84.1001 99.8 75.3001 109.3 71.5001 114C67.6001 118.7 60.8001 127.7 56.4001 134C52.0001 140.3 45.7001 150 42.5001 155.5C39.2001 161 33.8001 171.3 30.4001 178.5C27.1001 185.7 22.4001 196.2 20.2001 202C18.0001 207.8 14.3001 219 12.0001 227C9.80006 235 6.80006 246.9 5.50006 253.5C4.20006 260.1 2.40006 271.1 1.60006 278C0.500058 287.1 0.200058 297.2 0.500058 315C0.700058 328.5 1.40006 343.8 2.00006 349C2.60006 354.2 4.70006 365.5 6.70006 374C8.60006 382.5 12.3001 395.8 14.7001 403.5C17.2001 411.2 22.1001 424.2 25.6001 432.5C29.1001 440.7 35.0001 452.9 38.6001 459.5C42.3001 466.1 48.0001 475.8 51.3001 481C54.7001 486.2 59.8001 493.8 62.7001 497.7C65.6001 501.7 73.3001 511.2 79.9001 518.7C86.4001 526.3 95.3001 535.9 99.6001 540C104 544.1 112.4 551.5 118.5 556.4C124.6 561.2 135.1 568.9 142 573.4C148.9 578 158.1 583.7 162.5 586.2C166.9 588.7 175.1 593.1 180.8 595.9C186.4 598.7 194.5 602.4 198.7 604.1C203 605.8 211 608.7 216.5 610.6C222 612.5 234.1 616 243.5 618.5C252.9 620.9 266.6 623.8 274 625C284.7 626.8 293.3 627.3 315 627.7C336.9 628.1 345.3 627.9 356.5 626.5C364.2 625.6 376.4 623.7 383.5 622.4C390.6 621 402.4 618.3 409.5 616.3C416.6 614.4 428.1 610.8 435 608.3C441.9 605.9 454.5 600.3 463 596.1C471.5 591.8 482.8 585.7 488 582.5C493.2 579.4 501.1 574.3 505.5 571.2C509.9 568.2 519.1 561.1 526 555.4C532.9 549.8 543.6 540 549.8 533.6C555.9 527.2 564.5 517.6 568.8 512.2C573 506.9 579 498.9 582.1 494.5C585.2 490.1 590.7 481.7 594.4 475.7C598 469.8 604.1 458.8 607.9 451.2C611.6 443.7 616.8 432.3 619.3 426C621.8 419.7 625.7 408.4 627.9 401C630.1 393.6 633.3 381 634.9 373C636.5 365 638.6 352.4 639.4 345C640.4 336.9 641 323.3 641 311C641 299.7 640.5 286.4 640 281.5C639.4 276.6 637.8 265.5 636.4 257C634.9 248.5 632 235.2 629.8 227.5C627.6 219.8 624.3 209.2 622.3 204C620.4 198.8 615.3 187.3 611 178.5C606.7 169.7 599.9 157.1 595.9 150.5C592 143.9 584.2 132.2 578.6 124.5C571.7 114.9 563.5 105.4 552.5 94.1C543.7 85.1 530.6 73 523.5 67.3C516.4 61.6 504.6 53.4 497.5 49.1C490.4 44.7 480.5 39.2 475.5 36.7C470.5 34.3 461.5 30 455.5 27.3C449.5 24.5 439.8 20.6 434 18.7C428.2 16.7 417.6 13.5 410.5 11.7C403.4 9.8 393.2 7.3 388 6.1C382.8 4.9 372.9 3.3 366 2.4C358.7 1.5 343.2 0.7 328.5 0.5C314.7 0.3 298.8 0.6 293 1ZM297 20.3C296.7 20.5 292.4 21 287.5 21.3C282.6 21.6 274.2 22.8 269 23.9C263.8 25 253 27.4 245 29.4C237 31.3 224.4 35 217 37.5C209.6 40.1 195.4 46.1 185.5 51C175.6 55.9 163.9 61.9 159.5 64.5C155.1 67 147.4 72.1 142.5 75.8C137.6 79.5 129.7 85.6 125 89.4C120.3 93.3 111.5 101.4 105.4 107.5C99.3 113.5 89.7 124.3 84 131.5C78.3 138.7 70.9 148.8 67.4 154C64 159.2 57.4 170.7 52.9 179.5C48.3 188.3 42.7 200.4 40.3 206.5C37.9 212.6 34.2 223.4 32.1 230.5C29.9 237.6 26.5 251.6 24.4 261.5C20.9 278.8 20.7 280.5 20.3 305C20 320.9 20.2 334.6 20.9 341.5C21.6 347.6 23.2 357.7 24.6 364C26 370.3 28.5 380.2 30.1 386C31.8 391.8 35.1 401.7 37.5 408C39.8 414.3 44 424.4 46.7 430.5C49.4 436.6 54.5 446.5 58 452.5C61.4 458.5 67.9 468.9 72.3 475.5C76.7 482.1 84.6 492.9 89.8 499.5C95 506.1 105.4 517.6 112.9 525C120.4 532.4 129.5 540.6 133 543.3C136.6 545.9 143.2 550.7 147.7 554C152.3 557.3 157.9 561.2 160.2 562.7C162.6 564.1 172.1 569.4 181.5 574.3C190.9 579.2 205.1 585.9 213.2 589.1C221.4 592.3 233.3 596.4 239.7 598.1C242.428 598.814 245.227 599.545 247.697 600.19C251.112 601.082 253.898 601.81 255 602.1C256.9 602.6 264 604.1 270.7 605.5C277.6 606.9 290 608.4 298.7 609C307.4 609.5 320.1 610 327 609.9C333.9 609.9 344.5 609.2 350.5 608.4C355.167 607.778 359.652 607.277 361.791 607.037C362.402 606.969 362.822 606.922 363 606.9C363.8 606.8 370.4 605.7 377.5 604.3C384.6 602.9 396.1 600.2 403 598.3C409.9 596.3 420.9 592.7 427.5 590.3C434.1 587.8 442.4 584.3 446 582.5C448.725 581.213 453.342 578.894 457.594 576.759C458.959 576.074 460.285 575.407 461.5 574.8C466.5 572.3 474.3 568 479 565.3C483.7 562.6 493.6 555.9 501 550.3C509 544.2 520.8 533.9 530 524.8C538.6 516.4 548.5 505.9 552.1 501.5C555.7 497.1 561.8 489.2 565.5 484C569.3 478.8 575.5 469.1 579.3 462.5C583 455.9 588.4 445.8 591.2 440C594 434.2 598.6 423.4 601.5 416C604.4 408.6 608.4 396.9 610.4 390C612.4 383.1 614.8 373 615.9 367.5C617 362 618.3 354.6 618.9 351C619.5 347.4 620.4 337.3 621 328.5C621.7 319.7 621.9 310.3 621.6 307.5C621.3 304.8 620.8 297.6 620.5 291.5C620.1 285.4 619.2 276 618.4 270.5C617.6 265 616 256.4 615 251.5C613.9 246.6 611.6 237.8 609.9 232C608.1 226.2 604.8 216.6 602.5 210.5C600.1 204.4 594.2 191.4 589.2 181.5C584 171 576.1 157.5 570.4 149C565.1 141 556.3 129.3 550.9 123C545.6 116.7 536.6 107 530.9 101.5C525.2 96 517.4 89 513.5 85.9C509.6 82.8 502.9 77.7 498.5 74.7C494.1 71.6 486 66.4 480.5 63.1C475 59.9 466.9 55.4 462.5 53.2C458.1 51 449.1 47 442.5 44.2C435.9 41.5 425.5 37.6 419.5 35.6C413.5 33.6 400.9 30.2 391.5 28C382.1 25.9 369.1 23.4 362.5 22.5C355.4 21.5 339.7 20.6 324 20.3C309.4 20 297.3 20 297 20.3Z" fill="#0E1F34"/>
<path d="M282.8 183C283.8 181.1 286.2 178.7 288.1 177.7C290.2 176.7 292.5 176.2 294 176.6C295.4 176.9 297.3 177.9 298.4 178.8C299.4 179.7 300.8 181.7 301.6 183.3C302.4 184.8 303 187.5 303 189.3C303 191 302.4 193.2 301.7 194C301 194.9 298.7 197 292.5 201.9L289 200.1C287.1 199 284.7 197.4 283.7 196.4C282.8 195.3 281.7 192.7 281.4 190.5C281 187.7 281.4 185.5 282.8 183Z" fill="#14839D"/>
<path d="M341.6 183.5C342.4 182.1 344.5 180.1 346.2 179C348.4 177.7 350.7 177.1 353 177.4C354.9 177.6 357.5 178.2 358.7 178.9C360 179.5 361.5 181 362.1 182.3C362.7 183.5 363.1 186.3 362.9 188.5C362.8 190.7 362.1 193.5 361.6 194.8C361 196 358.6 198.1 352.2 201.5L348 199.5C345.7 198.4 343.2 196.8 342.4 196C341.6 195.2 340.8 192.6 340.6 190.3C340.4 187.8 340.8 185 341.6 183.5Z" fill="#14839D"/>
<path d="M194.7 265.6C195.7 263.8 197.4 261.8 198.5 261.2C199.6 260.6 201.4 260.1 202.5 260.1C203.6 260 206.3 261.6 212.5 266.9L207.9 271.2C205.4 273.6 203 276.5 202.7 277.8C202 279.8 201.8 279.9 199.2 278.6C197.7 277.9 195.7 276.5 194.7 275.6C193.8 274.7 193 272.9 193 271.5C193 270.1 193.8 267.5 194.7 265.6Z" fill="#14839D"/>
<path d="M61.2001 439.5L73.3001 439C80.0001 438.7 122.4 438.7 167.5 438.9C212.6 439.1 249.6 439.3 249.8 439.4C249.9 439.4 248.8 442 244.5 450.8L238 451.4C234.4 451.7 194.8 452 68.5001 452L61.2001 439.5Z" fill="#14839D"/>
<path d="M393.5 439L466 438.7C505.9 438.6 543.2 438.4 549 438.3C554.8 438.2 564.1 438.5 579.8 439.5L573.5 452H399.5L393.5 439Z" fill="#14839D"/>
<path d="M74.9001 462.5L139.2 461.9C174.6 461.6 211.8 461.6 222 461.8C232.2 462 240.6 462.3 240.7 462.4C240.9 462.4 240.2 464.7 239.4 467.5C238.5 470.2 237.5 472.8 237.1 473.3C236.8 473.7 202 474.2 83.0001 475L74.9001 462.5Z" fill="#14839D"/>
<path d="M404.4 469.7C403.6 466.9 402.7 463.9 402.5 463.2C402.2 462.3 418.8 462 483.5 462C528.3 462 565.7 462.2 566.5 462.5C567.7 462.9 567.1 464.2 564 468.2C561.8 471.1 560 473.8 560 474.2C560 474.7 525.4 475 406 475L404.4 469.7Z" fill="#14839D"/>
<path d="M90.0001 485.7C90.0001 485.3 116 484.9 147.7 484.7C179.5 484.6 210.9 484.4 217.5 484.2C224.1 484.1 230.9 484.3 232.5 484.6C235.5 485.2 235.5 485.3 234.3 488.9C233.6 490.9 233.1 493.2 233.1 494C233.1 494.9 231.7 495.8 229.8 496.3C228 496.7 197.8 497 99.0001 497L94.5001 491.7C92.1001 488.9 90.1001 486.2 90.0001 485.7Z" fill="#14839D"/>
<path d="M408.3 485.5L457.4 485C484.4 484.7 514.6 484.4 524.5 484.2C534.4 484.1 544.5 484.3 551.5 485.3L543.5 497.1L481.5 496.9C447.4 496.8 417.7 496.5 415.5 496.3C411.6 495.9 411.4 495.7 408.3 485.5Z" fill="#14839D"/>
<path d="M109 507.7C109 507.3 131.8 506.9 159.7 506.7C187.7 506.5 214.4 506.4 219.2 506.4C223.9 506.5 228.1 506.7 228.4 507C228.7 507.3 228.4 510 226.3 518.5L118 519L113.5 513.7C111 510.9 109 508.2 109 507.7Z" fill="#14839D"/>
<path d="M415.2 513.5C414.5 510.7 414.1 508 414.3 507.4C414.6 506.5 430.1 506.3 473.6 506.6C506 506.9 532.7 507.3 533 507.5C533.3 507.8 531.6 510 529.2 512.5C526.9 515 525 517.5 525 518C525 518.7 506.4 518.9 416.6 518.5L415.2 513.5Z" fill="#14839D"/>
<path d="M131.5 530C131.5 529.7 135.8 529.2 141 528.9C146.2 528.6 165.4 528.3 183.5 528.3C201.6 528.2 218.7 528.5 221.5 528.8C226.2 529.5 226.6 529.8 228.7 534C229.9 536.5 230.9 539.1 230.9 539.7C231 540.7 221.7 541.1 188.2 541.2C164.7 541.4 144.6 541.1 143.5 540.6C142.4 540.1 139.3 537.6 136.5 535.1C133.8 532.6 131.5 530.3 131.5 530Z" fill="#14839D"/>
<path d="M411 540C411 539.5 412.4 536.6 414.1 533.7L417.2 528.5L511.5 529.1L499 541H455C426.3 541 411 540.7 411 540Z" fill="#14839D"/>
<path d="M162.6 551.9C162.9 551.7 179 551.2 198.3 551V550.9C217.7 550.7 234.1 550.7 234.9 550.9C235.7 551.2 237.8 553.8 239.7 556.7C241.5 559.6 242.7 562.3 242.4 562.7C242.1 563.1 227.8 563.6 210.7 563.8C185.8 564.1 179 563.9 176.9 562.8C175.5 562.1 171.6 559.4 168.2 556.9C164.8 554.5 162.3 552.2 162.6 551.9Z" fill="#14839D"/>
<path d="M399.8 561.9C399.8 561.3 401.4 558.6 403.4 555.9L407.1 551H442.3C461.7 551 477.8 551.3 478.1 551.7C478.4 552 475.3 555 463.5 564.3L456 563.7C451.9 563.3 437.6 563 424.2 563C407.1 563 399.9 562.7 399.8 561.9Z" fill="#14839D"/>
<path d="M201 574.6C201.3 574.3 205.8 573.6 211 573.2C216.2 572.7 226.7 572.3 248 572.1L252.7 577C255.9 580.2 257.1 582.1 256.2 582.5C255.6 582.8 248.8 583.6 241.2 584.3C229.2 585.3 226.7 585.3 221.5 583.8C218.2 583 213 581.3 210 580.1C207 579 203.6 577.4 202.5 576.6C201.4 575.7 200.7 574.8 201 574.6Z" fill="#14839D"/>
<path d="M385 583.4C384.7 583.3 386.5 580.7 389 577.6L393.5 572.2H414C425.3 572.3 435.6 572.6 439.6 573.6L435.8 576.3C433.7 577.8 429.2 580.2 425.7 581.6C422.3 583 416.8 584.5 413.5 585.1C409.5 585.7 403.8 585.6 396.5 584.9C390.4 584.2 385.3 583.6 385 583.4Z" fill="#14839D"/>
<path d="M382.8 591.6C382.6 590.8 383.4 589.9 384.5 589.7C385.6 589.4 388.3 589.2 394.5 589.1L391.5 590.5C389.8 591.2 387.3 592.1 385.7 592.4C383.8 592.8 382.9 592.6 382.8 591.6Z" fill="#14839D"/>
<path d="M397.7 110C397.5 112.5 397.3 110.7 397.3 106C397.3 101.3 397.5 99.3 397.7 101.5C397.9 103.7 397.9 107.5 397.7 110Z" fill="#ADCED6"/>
<path d="M299.8 115.6C299.7 114.3 298.7 112 297.6 110.4C295.8 107.9 295.8 107.7 297.4 109C298.4 109.8 299.8 111.6 300.6 113C301.7 115.2 301.6 116 299.4 119.7C297.6 123 296.2 124.1 293.8 124.6C292 125 289.8 125 289 124.7C288.2 124.4 289 124.1 290.8 124.1C293.1 124 295 123.1 297.1 121C298.9 119.2 299.9 117.1 299.8 115.6Z" fill="#ADCED6"/>
<path d="M245.7 127.5C245.5 129.7 245.3 128.3 245.3 124.5C245.3 120.7 245.5 118.8 245.7 120.5C245.9 122.2 245.9 125.3 245.7 127.5Z" fill="#ADCED6"/>
<path d="M449.7 130C449.5 131.9 449.3 130.1 449.3 126C449.3 121.9 449.5 120.3 449.7 122.5C449.9 124.7 449.9 128.1 449.7 130Z" fill="#ADCED6"/>
<path d="M397.7 136C397.5 139 397.4 137 397.4 131.5C397.4 126 397.5 123.5 397.7 126C397.9 128.5 397.9 133 397.7 136Z" fill="#ADCED6"/>
<path d="M326.7 189.5C326.5 193.4 326.4 190.4 326.4 183C326.4 175.6 326.5 172.4 326.7 176C326.9 179.6 326.9 185.7 326.7 189.5Z" fill="#ADCED6"/>
<path d="M377.7 207C377.5 208.9 377.3 207.1 377.3 203C377.3 198.9 377.5 197.3 377.7 199.5C377.9 201.7 377.9 205.1 377.7 207Z" fill="#ADCED6"/>
<path d="M203 219C202.7 219 198.9 215.4 194.5 211C190.1 206.6 186.9 203 187.3 203C187.7 203 191.6 206.6 195.8 211C200 215.4 203.3 219 203 219Z" fill="#ADCED6"/>
<path d="M194.8 227C194.6 227 189.8 222.2 184 216.3L173.5 205.5L184.3 216C190.2 221.8 195 226.6 195 226.8C195 226.9 194.9 227 194.8 227Z" fill="#ADCED6"/>
<path d="M523 217.8C521.9 216.6 520.9 215 520.8 214.4C520.8 213.7 522.1 214.5 523.8 216.1C526.2 218.3 528 219 531 219C533.2 219 535.2 218.6 535.5 218C535.8 217.5 536.5 217 537.2 217C538 217 538 217.5 537 218.5C536.2 219.2 534.2 220 532.5 220.1C530.9 220.2 528.5 220.2 527.3 220.2C526 220.1 524.1 219 523 217.8Z" fill="#ADCED6"/>
<path d="M326.3 231.1C326.2 223.7 326.3 217.1 326.5 216.3C326.8 215.6 327.1 215 327.2 215C327.4 215 327.3 221.7 326.5 244.5L326.3 231.1Z" fill="#ADCED6"/>
<path d="M313 258.1C312.7 258.1 309.6 255.1 306 251.5C302.4 248 299.9 245 300.3 245C300.8 245 303.9 248 307.3 251.6C310.7 255.1 313.3 258.1 313 258.1Z" fill="#ADCED6"/>
<path d="M307 268.1C306.7 268.1 302 263.6 296.5 258C291 252.5 286.9 248 287.3 248C287.7 248 292.4 252.5 297.8 258.1C303.1 263.6 307.3 268.1 307 268.1Z" fill="#ADCED6"/>
<path d="M487.1 258.3C487.7 256.2 488 253.4 487.8 252C487.4 249.6 487.6 249.6 492.5 249.9C495.2 250.1 496.8 250.6 495.9 250.9C495.1 251.3 494.3 252.8 494.2 254.3C494.1 255.8 494 258.1 494 259.3C494 261.2 493.4 261.6 486 262L487.1 258.3Z" fill="#ADCED6"/>
<path d="M132 262.8C129.5 263 125.7 263 123.5 262.8C121.3 262.6 123.3 262.4 128 262.4C132.7 262.4 134.5 262.6 132 262.8Z" fill="#ADCED6"/>
<path d="M192.8 276.1C191.8 274.4 191.1 271.8 191.2 270.3C191.3 267.9 191.4 267.9 191.7 270.8C191.9 272.7 193.2 275.2 195 277C196.7 278.7 198.6 280 199.3 280C199.9 280 201.1 281.2 203.2 285.5L200.4 282.7C198.8 281.2 196.8 279.8 196 279.5C195.2 279.3 193.7 277.7 192.8 276.1Z" fill="#ADCED6"/>
<path d="M522.5 273.8C520.3 274 516.3 274 513.5 273.8C510.8 273.6 512.5 273.4 517.5 273.4C522.5 273.4 524.7 273.6 522.5 273.8Z" fill="#ADCED6"/>
<path d="M228.3 288.6C226.5 285.5 225 281.8 225 280.3V277.5L226.5 280C227.3 281.4 228.2 283.2 228.6 284C229 284.9 231.1 287.6 233.2 290C235.4 292.5 237.5 295.1 238.1 295.8C238.7 296.6 238.5 297.333 237.5 298C236.7 298.6 235.2 298.7 234.3 298.4C233.3 298 232.2 297.7 231.9 297.6C231.6 297.6 229.5 296.1 227.4 294.3C225.3 292.5 222.9 291 222.3 291C221.6 291 221 290.7 221 290.3C221 289.9 218.2 289.6 208.5 289.9L214.1 289.2C217.2 288.9 220.2 288.2 220.6 287.8C221.1 287.4 223.4 288.9 225.8 291.1C228.1 293.3 230.3 294.8 230.8 294.6C231.2 294.3 230 291.6 228.3 288.6Z" fill="#ADCED6"/>
<path d="M403.1 291.3C404.4 290.1 408 287.6 411 285.7C414 283.8 417.1 282.3 417.8 282.2C418.5 282.1 419.1 282.5 419.3 283C419.4 283.6 418.9 283.9 418 283.8C417.2 283.8 414 285.3 410.9 287.3C407.8 289.2 404.2 292.1 403.1 293.7C401.9 295.3 400.7 297.6 400.5 298.8C400.1 300.5 399.3 301.1 395 301.1L397.9 297.3C399.5 295.3 401.8 292.6 403.1 291.3Z" fill="#ADCED6"/>
<path d="M315.8 310.1C315.6 314.8 315.4 311.2 315.4 302.1C315.4 293 315.6 289.2 315.8 293.6C315.9 298 315.9 305.4 315.8 310.1Z" fill="#ADCED6"/>
<path d="M245.5 300.8C243.3 301 239.9 301 238 300.8C236.1 300.6 237.9 300.4 242 300.4C246.1 300.4 247.7 300.6 245.5 300.8Z" fill="#ADCED6"/>
<path d="M493 301.8C490.5 302 486 302 483 301.8C480 301.6 482 301.5 487.5 301.5C493 301.5 495.5 301.6 493 301.8Z" fill="#ADCED6"/>
<path d="M226.5 348.8C223.2 349 218 349 215 348.8C212 348.6 214.7 348.5 221 348.5C227.3 348.5 229.8 348.6 226.5 348.8Z" fill="#ADCED6"/>
<path d="M439.5 348.8C435.7 349 428.9 349 424.5 348.8C420.1 348.7 423.3 348.5 431.5 348.5C439.8 348.5 443.4 348.6 439.5 348.8Z" fill="#ADCED6"/>
<path d="M526.3 358.3C522 358.2 516.9 357.9 515 357.7C513.1 357.6 516.6 357.4 522.8 357.3C529 357.2 534 357.4 534 357.8C534 358.3 530.5 358.5 526.3 358.3Z" fill="#ADCED6"/>
<path d="M222 359.8C218.4 360 212.8 360 209.5 359.8C206.2 359.6 209.1 359.5 216 359.5C222.9 359.5 225.6 359.6 222 359.8Z" fill="#ADCED6"/>
<path d="M249.8 440.8C250.9 439.2 250.2 439.1 238.3 438.8L225.5 438.5L238.8 438.3C246.1 438.2 252 438.4 252.1 438.8C252.1 439.3 251.3 440.3 250.3 441.1C248.7 442.5 248.6 442.4 249.8 440.8Z" fill="#ADCED6"/>
<path d="M393.3 440.9C392.6 440.4 392.1 439.7 392.1 439.1C392.1 438.5 401 438.2 442.6 438.6L417.8 438.8C398.3 439.1 393.2 439.4 393.8 440.4C394.267 441.2 394.1 441.367 393.3 440.9Z" fill="#ADCED6"/>
<path d="M496.1 438.9C492.5 439 486.9 439 483.6 438.9C480.3 438.7 483.2 438.5 490.1 438.5C496.9 438.5 499.6 438.7 496.1 438.9Z" fill="#ADCED6"/>
<path d="M197.1 452.9C174.2 453 137.1 453 114.6 452.9C92 452.7 110.7 452.6 156.1 452.6C201.4 452.6 219.9 452.7 197.1 452.9Z" fill="#ADCED6"/>
<path d="M414.1 454.1C404.7 454.1 400.1 453.8 401.1 453.2C401.9 452.6 408 452.5 415.1 452.8C421.9 453.1 427.8 453.6 428.1 453.8C428.3 454 422 454.1 414.1 454.1Z" fill="#ADCED6"/>
<path d="M442.3 453.5C437.1 453.9 434.1 453.7 434.1 453.1C434.1 452.5 437.6 452.1 442.7 452.1C447.5 452.1 451.2 452.3 451 452.5C450.8 452.7 446.9 453.1 442.3 453.5Z" fill="#ADCED6"/>
<path d="M506.6 452.9C502.2 453 494.7 453 490.1 452.9C485.4 452.7 489 452.5 498.1 452.5C507.1 452.5 511 452.7 506.6 452.9Z" fill="#ADCED6"/>
<path d="M552.1 452.9C548.5 453 542.9 453 539.6 452.9C536.3 452.7 539.2 452.5 546.1 452.5C552.9 452.5 555.6 452.7 552.1 452.9Z" fill="#ADCED6"/>
<path d="M162.1 461.9C148 461.9 134.5 461.6 132.1 461.3C129.6 460.9 153.2 460.5 184.6 460.5C230 460.5 236.1 460.6 214.6 461.2C199.7 461.5 176.1 461.9 162.1 461.9Z" fill="#ADCED6"/>
<path d="M471.1 461.7C413.4 461.7 409 461.6 443.1 461.1C465.3 460.8 495 460.7 509.1 460.9C523.1 461 535.7 461.3 537.1 461.5C538.4 461.7 508.7 461.8 471.1 461.7Z" fill="#ADCED6"/>
<path d="M100.1 461.9C94.8 462 86.5 462 81.6 461.9C76.6 461.7 80.9 461.5 91.1 461.5C101.2 461.5 105.3 461.7 100.1 461.9Z" fill="#ADCED6"/>
<path d="M193.6 475.9C173.8 476 140.9 476 120.6 475.9C100.2 475.7 116.4 475.6 156.6 475.6C196.7 475.6 213.4 475.7 193.6 475.9Z" fill="#ADCED6"/>
<path d="M520.6 475.9C500.2 476 467.1 476 447.1 475.9C427 475.7 443.6 475.6 484.1 475.6C524.5 475.6 540.9 475.7 520.6 475.9Z" fill="#ADCED6"/>
<path d="M188.6 483.9C180.3 484 166.4 484 157.6 483.9C148.8 483.7 155.5 483.6 172.6 483.6C189.6 483.6 196.8 483.7 188.6 483.9Z" fill="#ADCED6"/>
<path d="M91 488.9C89.9 487.3 89.3 485.7 89.6 485.1C90 484.5 97 484.2 126.6 484.6L108.3 484.8C97 485 90.1 485.5 90.1 486.1C90.1 486.7 92.1 489.4 94.6 492.1C99 497 99.2 497.1 111.6 497.5L105.6 497.8C99.9 498.1 99.4 498 96.2 494.9C94.4 493.1 92 490.4 91 488.9Z" fill="#ADCED6"/>
<path d="M200.1 497.9C183.8 498 157.5 498 141.6 497.9C125.6 497.7 138.9 497.6 171.1 497.6C203.2 497.6 216.3 497.7 200.1 497.9Z" fill="#ADCED6"/>
<path d="M493.6 497.9C482.6 498 464.1 498 452.6 497.9C441 497.7 450 497.6 472.6 497.6C495.1 497.6 504.6 497.7 493.6 497.9Z" fill="#ADCED6"/>
<path d="M173.1 505.9C167.8 506 159.5 506 154.6 505.9C149.6 505.7 153.9 505.5 164.1 505.5C174.2 505.5 178.3 505.7 173.1 505.9Z" fill="#ADCED6"/>
<path d="M474.1 505.9C462.8 506 444.8 506 434.1 505.9C423.3 505.7 432.6 505.6 454.6 505.6C476.6 505.6 485.3 505.7 474.1 505.9Z" fill="#ADCED6"/>
<path d="M164.6 519.9C156.3 520 142.4 520 133.6 519.9C124.8 519.7 131.5 519.6 148.6 519.6C165.6 519.6 172.8 519.7 164.6 519.9Z" fill="#ADCED6"/>
<path d="M495.6 519.9C481.3 520 457.4 520 442.6 519.9C427.7 519.7 439.4 519.6 468.6 519.6C497.7 519.6 509.9 519.7 495.6 519.9Z" fill="#ADCED6"/>
<path d="M492.1 528.9C488.5 529 482.9 529 479.6 528.9C476.3 528.7 479.2 528.5 486.1 528.5C492.9 528.5 495.6 528.7 492.1 528.9Z" fill="#ADCED6"/>
<path d="M151.6 541.6L192.1 541.1C214.3 540.8 232.7 540.5 232.8 540.3C232.9 540.2 232.8 540.6 232.5 541.1C232.2 541.8 217.9 542 151.6 541.6Z" fill="#ADCED6"/>
<path d="M425.6 541.8C422.8 542.1 418.5 542.1 416.1 541.8C413.6 541.6 415.8 541.5 421.1 541.5C426.3 541.5 428.3 541.6 425.6 541.8Z" fill="#ADCED6"/>
<path d="M159.1 551.9C159.1 550.8 160 550 161.3 549.7C162.6 549.5 175.9 549.4 191.1 549.4C206.2 549.4 220.6 549.7 223.1 550.1C225.6 550.5 212.6 550.9 194.1 550.9C167.2 550.9 160.4 551.2 159.8 552.3C159.3 553.3 159.1 553.2 159.1 551.9Z" fill="#ADCED6"/>
<path d="M449.1 550.9C441.6 551 429 551 421.1 550.9C413.1 550.7 419.2 550.6 434.6 550.6C450 550.6 456.5 550.7 449.1 550.9Z" fill="#ADCED6"/>
<path d="M173.5 562.4C171.2 560.9 167.8 558.3 166 556.8C164.1 555.2 163.2 554.3 164.1 554.7C164.9 555.1 168 557.3 176.4 563.6L229.6 564.7L177.6 565.2L173.5 562.4Z" fill="#ADCED6"/>
<path d="M436.1 563.9C429.2 564 418.2 564 411.6 563.9C405 563.7 410.6 563.5 424.1 563.5C437.5 563.5 442.9 563.7 436.1 563.9Z" fill="#ADCED6"/>
<path d="M460.6 564.8C458.4 565.1 455.2 565.1 453.6 564.8C451.9 564.6 453.7 564.4 457.6 564.4C461.4 564.4 462.8 564.6 460.6 564.8Z" fill="#ADCED6"/>
<path d="M248.6 572.1L232.6 571.8L216.6 571.6L249.6 571.1L252.8 575.1C254.6 577.3 257.3 579.6 258.8 580.1C260.667 580.833 261.267 581.533 260.6 582.2C260 582.7 257.8 583.6 255.6 584.1C253.4 584.6 246.2 585.5 227.6 587.4L217.6 584.2C212.1 582.4 207.8 580.8 208.1 580.5C208.3 580.3 211.9 581.3 216.1 582.6C221.1 584.3 225.8 585.1 230.3 585.1C234 585.1 241.5 584.6 246.8 584.1C252.2 583.5 257.1 582.8 257.8 582.6C258.6 582.3 257 580.1 248.6 572.1Z" fill="#ADCED6"/>
<path d="M387 578.6C387.8 577.5 389.6 575.3 391 573.8L393.4 571.1H419.5C433.8 571.1 446.2 571.5 447.1 572C448.2 572.7 447.7 573.3 444.6 574.6C442.4 575.6 437.4 577.8 433.6 579.7C429.7 581.5 425.2 583.2 423.6 583.5C421.9 583.8 421.2 583.8 422.1 583.5C422.9 583.1 427.8 580.9 433.1 578.5C438.3 576.2 443.5 573.8 444.6 573.4C445.7 572.9 435.3 572.4 393.6 572L389.6 576.3C387.4 578.7 386.2 579.7 387 578.6Z" fill="#ADCED6"/>
<path d="M213.1 572.7C211.2 572.9 207.6 572.9 205.1 572.7C202.7 572.5 204.2 572.4 208.6 572.3C213 572.3 215.1 572.5 213.1 572.7Z" fill="#ADCED6"/>
<path d="M383.6 585.5C383.4 584.7 383.4 583.6 383.7 583C384 582.5 384.4 582 384.6 582C384.9 582 384.9 582.3 384.7 582.8C384.5 583.2 390.5 584.1 398 584.8C407.1 585.6 412.9 585.7 415.6 585.1C417.8 584.6 419.9 584.3 420.1 584.5C420.4 584.7 418.8 585.4 416.6 586C414.4 586.5 411.6 587 410.4 587C409.1 587 404.4 588.4 399.9 590.1C395.3 591.7 389.8 593.5 387.6 594.1C385.4 594.6 383.4 594.8 383.1 594.6C382.9 594.3 386.2 593.1 390.5 591.8C394.8 590.5 398.7 589.1 399 588.6C399.4 588 397.7 587.9 394.6 588.3C391.9 588.7 388.2 589 386.4 589C384 589 383.1 589.5 383 590.8C383 591.7 382.8 591.9 382.5 591.3C382.3 590.6 382.6 589.3 383.1 588.5C383.7 587.7 383.9 586.3 383.6 585.5Z" fill="#ADCED6"/>
<path d="M239.6 589.9C239.1 589.9 239.5 589.5 240.6 589C241.7 588.5 244.4 588.1 246.6 588.1C248.8 588.1 252.7 588.5 255.1 589.1C257.6 589.7 260 590.7 260.4 591.3C260.8 592 261.1 593.3 261.1 594.3C261.1 595.8 260.4 595.9 254.4 595.3C249.8 594.9 246.5 593.9 244.1 592.3C242.2 591 240.2 589.9 239.6 589.9Z" fill="#ADCED6"/>
<path d="M332.1 604.7C328.6 604.9 322.9 604.9 319.6 604.7C316.3 604.5 319.3 604.4 326.1 604.4C333 604.4 335.7 604.5 332.1 604.7Z" fill="#ADCED6"/>
<path d="M245.7 113C245.5 116 245.4 113.8 245.4 108C245.4 102.2 245.5 99.7 245.7 102.5C245.9 105.2 245.9 110 245.7 113Z" fill="#76919C"/>
<path d="M387.7 111.5C387.5 114.3 387.4 112.2 387.4 107C387.4 101.8 387.5 99.5 387.7 102C387.9 104.5 387.9 108.7 387.7 111.5Z" fill="#76919C"/>
<path d="M316.3 133.2C315.8 133.6 315.7 126.6 316 117.7L316.5 101.5L316.7 117C316.9 125.5 316.7 132.8 316.3 133.2Z" fill="#76919C"/>
<path d="M283.6 115.7C283.6 112.5 284.2 111.1 286.5 109.2C288.7 107.4 290.1 107 292.4 107.4C294.1 107.7 296.5 109.1 297.7 110.5C299 111.9 300 114.1 300 115.5C300 116.9 298.7 119.3 297.1 121C295 123.1 293.2 124 290.8 124C288.7 124.1 286.8 123.3 285.5 121.9C284.1 120.5 283.5 118.5 283.6 115.7Z" fill="#76919C"/>
<path d="M326.7 125.5C326.5 129.3 326.4 126.6 326.4 119.5C326.4 112.3 326.5 109.2 326.7 112.5C326.9 115.8 326.9 121.6 326.7 125.5Z" fill="#76919C"/>
<path d="M348.5 122.1C346.3 121 343.8 119.3 343 118.4C342 117.2 342.667 117.4 345 119C346.9 120.3 350.3 122 352.5 122.6C354.7 123.3 355.6 123.9 354.5 123.9C353.4 123.9 350.7 123.1 348.5 122.1Z" fill="#76919C"/>
<path d="M409.5 178.5L416.5 171.2C420.3 167.3 423.6 164 423.7 164C423.9 164 424 164.1 424 164.2C424 164.389 421.047 167.264 411.244 176.803L409.5 178.5Z" fill="#76919C"/>
<path d="M253.7 213.5C253.5 216.8 253.4 214.3 253.4 208C253.4 201.7 253.5 199 253.7 202C253.9 205 253.9 210.2 253.7 213.5Z" fill="#76919C"/>
<path d="M436.5 219.5L443 212.7C446.5 209 449.6 206 449.7 206C449.9 206 450 206.1 450 206.2C450 206.4 447 209.4 436.5 219.5Z" fill="#76919C"/>
<path d="M524 216C522 214 521 212.1 521.1 210.2C521.2 207.6 521.2 207.6 521.8 210.7C522.2 212.4 523.4 214.6 524.5 215.4C525.6 216.3 527.6 217.3 529 217.6C530.4 218 532.5 218.1 533.6 217.9C534.8 217.7 535.6 217.8 535.4 218.2C535.2 218.7 533.2 219 531 219C527.9 219 526.3 218.3 524 216Z" fill="#76919C"/>
<path d="M326.5 259.5L334.5 251.2C338.9 246.7 342.6 243 342.7 243C342.9 243 343 243.1 343 243.2C343 243.4 339.3 247.1 326.5 259.5Z" fill="#76919C"/>
<path d="M337.5 264.5L347.5 254.2C353 248.6 357.6 244 357.7 244C357.9 244 358 244.1 358 244.2C358 244.4 353.4 249 337.5 264.5Z" fill="#76919C"/>
<path d="M148.8 253.8C148.5 250.2 148.6 250.1 152 249.7C153.898 249.5 155.497 249.3 155.5 249.2C155.5 249.198 155.5 249.197 155.5 249.197V249.2C155.5 249.2 155.5 249.2 155.5 249.2C155.5 249.301 155.496 251.724 155.4 254.7C155.4 257.9 155.7 260.9 156.1 261.5C156.5 262.1 155.5 262.4 153.4 262.2C150.8 262.1 149.9 261.5 149.5 259.7C149.3 258.5 149 255.8 148.8 253.8Z" fill="#76919C"/>
<path d="M198.7 261.1C196.6 262.1 196.6 262.1 198.5 260.6C199.6 259.7 201.6 259 203 259C204.5 259.1 207.4 260.7 210 263.1C212.5 265.2 214.2 267.2 213.7 267.5C213.3 267.8 211.1 266.2 208.7 264C206.4 261.8 203.7 260 202.7 260C201.8 260 200 260.5 198.7 261.1Z" fill="#76919C"/>
<path d="M435.5 263.5C434.4 263.2 432.4 262.9 431 262.7C429.6 262.4 430.5 262.2 433 262.1C436.6 262 438.1 262.5 440.2 264.5C441.8 265.9 443.3 268 443.6 269.2C443.9 270.5 444 272.4 443.7 273.5C443.367 274.833 443.2 274.5 443.2 272.5C443.1 270.6 442 268.4 440.3 266.7C438.8 265.1 436.6 263.7 435.5 263.5Z" fill="#76919C"/>
<path d="M191.9 270.7C191.8 268.9 192.5 266.4 193.4 265.2C194.4 264 195.2 263 195.4 263C195.5 263 195 264.5 194.2 266.2C193.4 268 192.9 270.7 193.1 272.1C193.3 273.6 193.2 274.6 192.7 274.4C192.3 274.2 192 272.5 191.9 270.7Z" fill="#76919C"/>
<path d="M173 278C172.7 278 169.3 274.9 165.5 271C161.6 267.1 158.9 264 159.3 264C159.7 264 163.1 267.2 166.8 271C170.5 274.9 173.3 278 173 278Z" fill="#76919C"/>
<path d="M133.5 273.7C129.6 273.9 123.1 273.9 119 273.7C114.9 273.5 118 273.4 126 273.4C134 273.4 137.3 273.5 133.5 273.7Z" fill="#76919C"/>
<path d="M506 273.7C504.1 273.9 500.5 273.9 498 273.7C495.5 273.5 497.1 273.3 501.5 273.3C505.9 273.3 507.9 273.5 506 273.7Z" fill="#76919C"/>
<path d="M225.5 287C224.7 285.6 224.1 282.2 224.2 279.5L224.3 274.5L225 279.5C225.3 282.2 226.9 286.6 228.3 289.2C229.8 291.9 230.8 294.2 230.5 294.5C230.2 294.8 228.3 293.3 226.2 291.2C224.1 289.2 223.4 288.4 224.7 289.5C226 290.6 227 291 227 290.5C227 289.9 226.3 288.4 225.5 287Z" fill="#76919C"/>
<path d="M404.7 291.9C406.3 290.4 409.7 287.8 412.4 286.1C415.2 284.5 417.5 283.5 417.7 284C417.9 284.6 417.6 285.9 417 287C416.3 288.4 415.2 288.9 413.2 288.7C411.7 288.6 409.2 289.3 407.7 290.2C406.2 291.2 404.1 293.5 403 295.2C401.9 297 401 298.8 401 299.2C401 299.7 402 299.7 403.3 299.4C405 299 405.2 299.1 404 299.9C402.9 300.6 408.3 301 442.5 301.5L422.5 301.8C411.5 301.9 401.8 301.6 401 301.1C399.7 300.3 399.7 299.7 400.7 297.3C401.4 295.8 403.2 293.3 404.7 291.9Z" fill="#76919C"/>
<path d="M179.5 301.7C177.3 301.9 173.3 301.9 170.5 301.7C167.8 301.5 169.6 301.4 174.5 301.4C179.5 301.3 181.7 301.5 179.5 301.7Z" fill="#76919C"/>
<path d="M474 301.7C471.5 301.9 467 301.9 464 301.7C461 301.5 463 301.4 468.5 301.4C474 301.4 476.5 301.5 474 301.7Z" fill="#76919C"/>
<path d="M141.8 312.2C137.1 312.4 133.4 312.2 133.6 311.7C133.9 311.3 139.8 311.1 146.8 311.2C153.8 311.3 157.5 311.5 155 311.7C152.5 311.8 146.6 312.1 141.8 312.2Z" fill="#76919C"/>
<path d="M488.5 311.7C486.3 311.9 483.2 311.9 481.5 311.7C479.9 311.5 481.7 311.3 485.5 311.3C489.4 311.3 490.7 311.5 488.5 311.7Z" fill="#76919C"/>
<path d="M230 312.7C223.1 312.9 212.1 312.9 205.5 312.7C198.9 312.6 204.5 312.4 218 312.4C231.5 312.4 236.9 312.6 230 312.7Z" fill="#76919C"/>
<path d="M438 312.7C431.7 312.9 420.9 312.9 414 312.7C407.1 312.6 412.3 312.4 425.5 312.4C438.7 312.4 444.3 312.6 438 312.7Z" fill="#76919C"/>
<path d="M282.8 348.9C278.8 348.8 272.4 348.4 268.5 348C262.8 347.3 264.2 347.2 275.7 347.3C283.6 347.4 290 347.8 290 348.2C290 348.7 286.7 348.9 282.8 348.9Z" fill="#76919C"/>
<path d="M376 348.7C373 348.9 367.6 348.9 364 348.7C360.4 348.5 362.9 348.4 369.5 348.4C376.1 348.4 379 348.5 376 348.7Z" fill="#76919C"/>
<path d="M413 348.7C410.5 348.9 406.7 348.9 404.5 348.7C402.3 348.5 404.3 348.3 409 348.3C413.7 348.3 415.5 348.5 413 348.7Z" fill="#76919C"/>
<path d="M131.5 356.7C129.3 356.9 125.3 356.9 122.5 356.7C119.8 356.5 121.6 356.4 126.5 356.4C131.5 356.3 133.7 356.5 131.5 356.7Z" fill="#76919C"/>
<path d="M446 358.7C441.9 358.9 434.7 358.9 430 358.7C425.3 358.6 428.7 358.4 437.5 358.4C446.3 358.4 450.1 358.6 446 358.7Z" fill="#76919C"/>
<path d="M200 359.7C197.5 359.9 193.7 359.9 191.5 359.7C189.3 359.5 191.3 359.3 196 359.3C200.7 359.3 202.5 359.5 200 359.7Z" fill="#76919C"/>
<path d="M79.5001 438.7C76.2001 438.9 71.0001 438.9 68.0001 438.7C65.0001 438.5 67.7001 438.4 74.0001 438.4C80.3001 438.4 82.8001 438.5 79.5001 438.7Z" fill="#76919C"/>
<path d="M199 438.7C183.9 438.9 159.4 438.9 144.5 438.7C129.7 438.6 142 438.5 172 438.5C202 438.5 214.1 438.6 199 438.7Z" fill="#76919C"/>
<path d="M469 438.7C463.8 438.9 455.5 438.9 450.5 438.7C445.6 438.6 449.8 438.4 460 438.4C470.2 438.4 474.2 438.6 469 438.7Z" fill="#76919C"/>
<path d="M529 438.7C523.8 438.9 515.5 438.9 510.5 438.7C505.6 438.6 509.8 438.4 520 438.4C530.2 438.4 534.2 438.6 529 438.7Z" fill="#76919C"/>
<path d="M428.5 452.7C425.2 452.9 419.4 452.9 415.5 452.7C411.7 452.5 414.4 452.4 421.5 452.4C428.7 452.4 431.8 452.5 428.5 452.7Z" fill="#76919C"/>
<path d="M477 452.7C474 452.9 469.3 452.9 466.5 452.7C463.8 452.5 466.2 452.4 472 452.4C477.8 452.4 480 452.5 477 452.7Z" fill="#76919C"/>
<path d="M529 452.7C526 452.9 521.3 452.9 518.5 452.7C515.8 452.5 518.2 452.4 524 452.4C529.8 452.4 532 452.5 529 452.7Z" fill="#76919C"/>
<path d="M570 452.7C567.5 452.9 563.7 452.9 561.5 452.7C559.3 452.5 561.3 452.3 566 452.3C570.7 452.3 572.5 452.5 570 452.7Z" fill="#76919C"/>
<path d="M128.5 461.7C124.7 461.9 118.6 461.9 115 461.7C111.4 461.5 114.6 461.4 122 461.4C129.4 461.4 132.4 461.5 128.5 461.7Z" fill="#76919C"/>
<path d="M240.5 463.5C240.9 462.2 239.3 462 230.8 461.7L220.5 461.4L231.3 461.2C240.2 461 242 461.2 242 462.5C242 463.3 241.6 464.2 241 464.5C240.5 464.8 240.2 464.3 240.5 463.5Z" fill="#76919C"/>
<path d="M197.1 474.8C189.6 474.9 177.9 474.9 171.1 474.8C164.2 474.6 170.3 474.4 184.6 474.4C198.9 474.4 204.5 474.6 197.1 474.8Z" fill="#76919C"/>
<path d="M185.1 484.8C173.8 484.9 155.8 484.9 145.1 484.8C134.3 484.6 143.6 484.5 165.6 484.5C187.6 484.5 196.3 484.6 185.1 484.8Z" fill="#76919C"/>
<path d="M482.1 484.8C468.6 484.9 446.1 484.9 432.1 484.8C418 484.6 429.1 484.5 456.6 484.5C484.1 484.5 495.5 484.6 482.1 484.8Z" fill="#76919C"/>
<path d="M536.1 497.8C531.9 497.9 525 497.9 520.6 497.8C516.2 497.6 519.5 497.4 528.1 497.4C536.6 497.4 540.2 497.6 536.1 497.8Z" fill="#76919C"/>
<path d="M186.1 506.8C172.6 506.9 150.1 506.9 136.1 506.8C122 506.6 133.1 506.5 160.6 506.5C188.1 506.5 199.5 506.6 186.1 506.8Z" fill="#76919C"/>
<path d="M502.6 506.8C492.7 506.9 476.7 506.9 467.1 506.8C457.4 506.6 465.5 506.5 485.1 506.5C504.6 506.5 512.5 506.6 502.6 506.8Z" fill="#76919C"/>
<path d="M196.1 518.7C194.1 518.9 190.5 519 188.1 518.7C185.6 518.5 187.2 518.4 191.6 518.4C196 518.3 198 518.5 196.1 518.7Z" fill="#76919C"/>
<path d="M146.6 528.7C144.4 529 141.2 528.9 139.6 528.7C137.9 528.5 139.7 528.3 143.6 528.3C147.4 528.3 148.8 528.5 146.6 528.7Z" fill="#76919C"/>
<path d="M460.1 528.8C452.1 528.9 439.3 528.9 431.6 528.8C423.9 528.6 430.4 528.4 446.1 528.4C461.7 528.4 468 528.6 460.1 528.8Z" fill="#76919C"/>
<path d="M508.6 528.7C506.4 529 503 529 501.1 528.7C499.1 528.5 500.9 528.3 505.1 528.3C509.2 528.3 510.8 528.5 508.6 528.7Z" fill="#76919C"/>
<path d="M468.1 541.8C460.6 541.9 448.9 541.9 442.1 541.8C435.2 541.6 441.3 541.4 455.6 541.4C469.9 541.4 475.5 541.6 468.1 541.8Z" fill="#76919C"/>
<path d="M439.2 574.3C439.8 573.4 439.3 572.9 437.3 572.7C435.8 572.5 437.2 572.2 440.5 572.2C443.7 572.1 446 572.3 445.6 572.8C445.2 573.2 443.4 574 441.6 574.5C439 575.3 438.5 575.2 439.2 574.3Z" fill="#76919C"/>
<path d="M273.8 594.5C273.6 596.7 273.4 595.4 273.4 591.5C273.4 587.7 273.6 585.9 273.8 587.5C274 589.2 274 592.3 273.8 594.5Z" fill="#76919C"/>
<path d="M390.1 591.3C392.3 590.6 393.8 589.6 393.5 589C393.1 588.4 394.2 588 396.2 588C398.1 588 399.1 588.4 398.5 588.9C398 589.4 395.1 590.5 392.1 591.5C389 592.4 386.5 593 386.3 592.8C386.2 592.7 387.9 591.9 390.1 591.3Z" fill="#76919C"/>
<path fill-rule="evenodd" clip-rule="evenodd" d="M321.5 38.1C324.3 38 329 38.7 332 39.6C336.1 40.9 338.8 42.5 342.5 46.4C345.3 49.2 348.5 53.5 349.7 56C350.9 58.5 352.1 62.8 352.5 65.5C353 69 352.7 72.2 351.7 76C350.8 79 348.6 84 346.8 87C345 90 341.5 93.9 339 95.8C336.5 97.7 332.6 99.7 326 101.5V116.5C326 131 326.1 131.6 328.5 135C330.2 137.3 331 139.8 331 142.3C331 145 330.2 146.8 325.5 151.7L325.8 175.1L325.807 175.468C326.2 197.908 326.213 198.613 328.5 201C329.7 202.4 331.1 204.4 331.4 205.5C331.8 206.6 331.5 208.9 330.9 210.5C330.3 212.1 328.9 214.2 327.9 215C326.2 216.4 326 218.4 325.8 237.8C325.6 251.4 325.9 259 326.5 259C327 259 333.8 252.8 341.5 245.2C349.2 237.6 358.4 229 362 226.1C365.6 223.1 370.5 219.4 377.5 215.1L378.4 199.3C378.9 190.6 379.3 180.4 379.5 169.5L376.5 169.2C374.9 169 371.8 168.5 369.7 167.9C367.7 167.4 364.6 165.8 362.9 164.3C361.1 162.7 358.7 159.4 357.4 156.8C355.7 153.5 355 150.3 355 146.5C355 143 355.7 139.7 357 137.3C358.1 135.2 359.5 132.8 360.2 131.9C360.9 131 363.1 129.3 365 128.1C367.8 126.4 370.1 126 376.8 126C381.3 126 385.2 126.5 385.5 127C385.8 127.6 386.5 128 387 128C387.6 128 388 122 388 112C388 96.7 387.9 96 386 96C384.9 96 382.8 95.2 381.4 94.3C379.9 93.3 377.6 90.5 376.2 88C374.1 84.2 373.7 82.5 374.1 77.3C374.4 72.3 375.1 70.5 377.6 67.3C379.3 65.2 382.4 62.5 384.6 61.3C387.3 59.7 390.2 59 393.8 59C396.6 59 400.5 59.6 402.3 60.4C404 61.1 406.9 63.3 408.6 65.1C410.3 67 412.2 70.1 412.9 72C413.5 73.9 414 77.2 414 79.3C414 81.3 413.2 84.7 412.1 86.8C411.1 88.8 409 91.6 407.4 93C405.8 94.4 402.8 96.1 397 98L397.1 125.3C397.2 147.3 396.9 153.2 395.7 156C394.9 157.9 393 161.1 391.6 163C389.6 165.6 389 167.7 389 171C389 173.5 389.2 176.5 389.5 177.8C389.8 179 390.5 180 391 180C391.5 180 393 178.8 394.3 177.4C395.5 176 402.6 169.4 410 162.8C411.559 161.389 413.215 159.893 414.97 158.308L414.981 158.298L414.982 158.297C421.556 152.361 429.513 145.178 438.9 136.5L440.3 117.5L437.5 116C435.9 115.2 433.5 112.9 432.2 111C431 109.1 429.4 105.7 428.9 103.5C428.1 100.6 428.1 98.4 429 95.5C429.7 93.3 431.3 90 432.6 88.3C433.9 86.5 436.5 84.1 438.3 83C440 81.9 443.1 80.8 445 80.5C446.9 80.1 450.4 80.3 452.8 80.9C455.1 81.5 458.6 83.5 460.6 85.3C462.6 87 465.2 90.3 466.3 92.5C467.7 95.4 468.1 97.8 467.8 101.5C467.533 104.833 466.4 107.967 464.4 110.9C462.8 113.3 460.3 115.9 458.8 116.6C457.2 117.4 454.4 118 449 118V127.3C449 134.8 448.6 137.3 446.7 141C445.3 143.7 440.7 148.8 434.6 154.5C429.1 159.4 418.1 169.7 410.1 177.3C402.1 184.9 394.1 191.6 392.3 192.3C389.9 193.2 389 194.3 388.5 196.5C388.2 198.1 388 203.4 388 208.3C388 216.4 387.8 217.2 385.3 219.8C383.7 221.4 377.8 226.7 372 231.6C366.2 236.4 353.8 248.1 327.4 274.5L326.9 300C326.6 314 326.5 326.1 326.7 326.8C326.8 327.4 327.5 328 328 328C328.5 328 329.4 326.5 330 324.8C330.5 323 332.9 318.8 335.3 315.5C337.7 312.2 348.6 301.2 359.5 291C370.025 281.151 381.482 270.65 385.499 266.968L385.9 266.6C389.5 263.4 402.4 251.5 414.5 240.1C426.6 228.8 443.9 212.3 453 203.6C462.1 194.8 473.7 184.1 488 172L484.8 166.3C481.7 160.9 481.5 159.9 481.5 151C481.5 143.2 481.9 140.6 483.8 136.8C485 134.1 488 129.9 490.4 127.3C493 124.4 496.9 121.5 500.1 120.1C503.1 118.8 508 117.5 511 117.2C514.5 116.9 518.6 117.3 522.3 118.4C526.5 119.6 529.4 121.3 533.1 124.8C535.9 127.4 539.4 132 540.8 135C543.1 139.7 543.5 141.8 543.5 149.1C543.5 157.2 543.3 158.2 539.5 165.6C536.2 172.1 534.5 174.1 530 177.3C527 179.4 522 181.8 519 182.7C515.7 183.6 511.5 184.1 508.5 183.8C505.8 183.5 501.7 182.3 495.5 178.8L480.5 193.2C472.3 201.1 458.6 214.1 450.1 222C441.7 230 427.7 243 419.1 250.9C414.337 255.276 407.518 261.584 400.648 267.939L400.645 267.942C395.114 273.06 389.55 278.207 385 282.4C374.8 291.8 361.8 304.2 356 310C349.7 316.3 344 323.1 341.7 327C339.6 330.6 337.2 335.7 334.5 343.1L330 342.3C327.5 341.9 323.5 341.5 321 341.5C318.5 341.5 314.5 341.8 307.5 342.9L306.8 338.7C306.4 336.4 303.9 331 301.3 326.7C298.4 322 293 315.4 288 310.5C283.3 305.9 276.5 299.7 272.8 296.8C269.2 293.9 261.3 287.2 255.4 282C249.4 276.8 239.8 268.2 234 263C228.2 257.8 223 253.1 222.4 252.5C221.8 252 209.2 239.8 194.4 225.4C179.6 211.1 165.5 197.6 163 195.5C160.5 193.4 155.8 189 146.5 180L141.5 182.2C137.6 184 134.7 184.5 128.5 184.5C122.3 184.5 119.6 184 116.5 182.4C114.3 181.2 110.8 178.5 108.7 176.4C106.6 174.2 103.3 169.4 101.4 165.5C97.9001 158.7 97.8001 158.2 98.2001 149C98.6001 141.3 99.1001 138.6 101.2 134.5C102.6 131.8 105.5 128 107.6 126.1C109.8 124.2 114 121.5 117 120.1C120.8 118.4 124.4 117.6 128.5 117.6C131.8 117.5 136.8 118.2 139.5 119C142.9 120 146.2 122.1 150 125.6C153 128.4 156.6 132.9 158 135.6C159.6 138.8 160.5 142.7 160.8 147C161 150.6 160.7 155.5 160 158C159.4 160.5 157.7 164.9 156.4 167.8C155.1 170.6 154.3 173.5 154.8 174.2C155.2 174.9 163.1 182.3 172.5 190.6C181.9 199 192.6 209 196.5 213C200.4 216.9 211.6 227.7 221.5 236.9C231.4 246.1 251 263.7 265 276C279 288.3 294.1 302.1 298.5 306.7C303.2 311.5 308.2 318 310.5 322.2C312.7 326.1 315 329.3 315.5 329.2C316.1 329.1 316.4 320.4 316.1 304.7C315.9 291.4 315.5 279.8 315.2 279C314.9 278.2 313.3 275.7 311.6 273.5C310 271.3 304.3 265.1 299 259.6C293.8 254.2 283.9 244.8 277.1 238.6C270.3 232.5 262.4 225.9 254.5 220.4L253.9 207.4C253.6 200.3 253.2 194.4 253.1 194.3C253.1 194.1 252.3 194 251.5 194C250.7 194 245.8 190 240.8 185.2C235.7 180.3 229.3 174.3 226.5 171.9C224.025 169.608 219.028 165.467 215.054 162.174L214 161.3C209.9 158 203.4 152.3 192.5 142.2L191.5 118.7L187 117.4C184.5 116.7 181.2 114.9 179.6 113.3C178 111.8 176.1 109 175.4 107.3C174.6 105.5 174 102.4 174 100.5C174 98.6 174.7 95.3 175.6 93.3C176.4 91.2 178.3 88.2 179.8 86.6C181.3 85 184.3 82.9 186.5 81.9C188.7 80.9 191.6 80 193 80C194.4 80 197.5 80.6 200 81.4C202.7 82.3 206 84.5 208.3 87C210.3 89.2 212.4 92.8 213 95C213.6 97.3 213.7 100.6 213.2 102.8C212.8 104.8 211.5 108.1 210.4 110C209.3 111.9 206.8 114.6 201.1 118.5L201.6 126.5C201.9 130.9 202.3 135.4 202.5 136.5C202.7 137.6 206.4 141.5 210.7 145.2C213.279 147.419 216.397 150.07 219.085 152.354L219.088 152.357L219.091 152.359C220.882 153.881 222.481 155.241 223.6 156.2C226.4 158.6 233.9 165.1 240.3 170.8C246.8 176.4 252.2 180.9 252.4 180.8C252.6 180.6 253.1 177.8 253.5 174.5C254.1 168.7 254.1 168.4 251.5 167C250.1 166.2 247.7 163.3 246.4 160.5C244.2 156 244 154.7 244.5 147C244.8 142.3 245.2 129.4 245.5 118.3C245.9 100.7 245.8 98 244.5 98C243.7 98 241.2 97.1 239 96C236.8 94.9 233.8 92.3 232.3 90.3C230.1 87.4 229.4 85.3 229.2 80.6C228.9 75.8 229.4 73.6 231.2 70C232.5 67.4 235.3 64.3 237.8 62.5C241.8 59.8 242.9 59.5 250 59.5C257.2 59.5 258.1 59.7 261.7 62.6C263.8 64.2 266.5 67.6 267.8 70.1C269 72.5 270 75.9 270 77.5C270 79.2 269.4 82.3 268.7 84.4C268.1 86.5 266.1 89.9 264.4 91.9C262.7 93.9 259.9 96.2 254.8 98.5L255.1 112.2C255.3 119.7 255.8 126.2 256.3 126.7C256.7 127.1 257.6 126.9 258.2 126.3C258.9 125.5 261.9 125 265.4 125C269.2 125 273 125.8 275.5 126.9C277.7 127.9 280.7 130 282.2 131.6C283.7 133.2 285.4 135.7 285.9 137.3C286.5 138.8 287 142.5 287 145.5C287 148.5 286.3 152.7 285.4 154.8C284.6 156.8 282.7 160 281.2 161.9C279.7 163.8 276.3 166.4 273.5 167.7C270.8 168.9 267.4 170 263.5 170L263.8 193C263.9 207.5 264.4 216 265 216C265.6 216 268.8 218.3 272.3 221.2C275.7 224.1 285 232.3 292.9 239.5C300.9 246.6 309.2 254.6 311.4 257.2C313.7 259.9 315.7 262 316 262C316.3 262 316.4 251.8 316.3 239.3C316 218.5 315.8 216.2 314 213.5C313 211.9 312 209.1 312 207.5C312 205.8 312.9 203.2 314.2 201.5C316.4 198.6 316.5 197.9 316.5 174.3C316.5 160.9 316.3 150 316 150C315.7 150 314.6 148.5 313.5 146.6C311.8 143.5 311.7 142.6 312.7 139.3C313.3 137.2 314.6 134.8 315.5 134C316.8 132.7 317.1 130 317.1 102.5L308.5 98.3C301.2 94.6 299.5 93.2 296.5 88.8C294.6 85.9 292.3 80.6 291.4 77C290 71.6 289.9 69.4 290.9 64C291.6 60.1 293.2 55.6 295 52.8C296.7 50.1 300.1 46.4 302.8 44.5C305.4 42.6 309.5 40.4 312 39.6C314.5 38.8 318.8 38.1 321.5 38.1ZM354.5 104.4C357.1 104.7 359.1 105.7 360.3 107.2C361.4 108.6 362.1 111.1 362 113.8C362 117 361.4 118.6 359.3 120.7C356.9 122.9 355.9 123.2 353 122.7C351.1 122.3 347.8 120.9 345.8 119.5C343.5 118 342 116.2 342 115C342 113.9 342.7 111.7 343.5 110C344.3 108.4 346.2 106.3 347.8 105.5C349.5 104.5 352 104.1 354.5 104.4ZM445 165.5C447.9 165.8 450.3 166.7 451.8 168.2C453.1 169.5 454.6 172.1 455.2 174C456 176.6 456 178.6 455.2 181.8C454.5 184.1 452.9 187.1 451.5 188.5C449.6 190.5 448.1 191 444.3 191C441.3 191 438.3 190.3 436.3 189C434.1 187.7 432.6 185.7 431.9 183.3C431.3 181.2 431 177.9 431.3 176C431.7 174.1 432.9 171.2 434 169.7C435.2 168.1 437.1 166.4 438.3 165.9C439.5 165.4 442.5 165.2 445 165.5ZM198 166C199.9 166 202.9 166.8 204.5 167.8C206.1 168.8 208.3 171.3 209.3 173.3C210.2 175.3 211 178 211 179.3C211 180.5 210.2 183.1 209.1 185C208.1 186.9 205.7 189.3 203.9 190.3C202 191.2 198.7 192 196.5 192C194.3 192 191.5 191.3 190.3 190.5C189 189.7 187.3 187.6 186.5 186C185.7 184.4 185 181.7 185 180C185 178.4 185.7 175.4 186.5 173.5C187.3 171.6 189.5 169.1 191.3 168C193 166.9 196.1 166 198 166ZM81.7501 188C83.0658 188.02 85.6254 188.813 87.6001 189.8C90.1001 191 91.4001 192.5 92.2001 195C92.8001 196.9 93.0001 200.1 92.7001 202C92.3001 203.9 91.0001 207.1 89.7001 209C88.5001 210.9 86.2001 213.1 84.7001 213.8C82.7001 214.7 81.0001 214.7 78.5001 214C75.9001 213.3 74.2001 211.7 72.0001 208.3C70.3001 205.6 69.0001 202.5 69.0001 201.3C69.0001 200 69.8001 197.3 70.9001 195.3C71.9001 193.1 74.2001 190.8 76.1001 189.8C77.976 188.813 80.4368 188.02 81.7501 188ZM81.7501 188C81.7332 188 81.7165 188 81.7001 188H81.8001C81.7836 188 81.7669 188 81.7501 188ZM557 188C559.1 188 562.3 188.7 563.9 189.5C565.5 190.3 567.6 192 568.4 193.3C569.2 194.5 569.9 197.5 569.9 200C569.9 202.5 569.1 206.1 568.1 208C567.1 209.9 564.7 212.3 562.8 213.2C560.9 214.2 558.2 215 556.6 215C555.1 215 552.7 214.4 551.1 213.6C549.5 212.8 547.6 210.4 546.2 207.4C544.3 203.2 544.1 201.9 545.1 198.5C545.7 196.2 547.6 193.1 549.6 191.3C552.3 188.7 553.9 188 557 188ZM229.1 198C231.2 198 234.1 198.8 235.6 199.9C237.2 200.9 239 203.2 239.8 205.1C240.7 207.2 241 209.8 240.5 212C240.2 213.9 239.2 216.5 238.4 217.8C237.6 219 235.4 220.9 233.6 222C231.9 223.1 228.7 224 226.6 224C224 224 222 223.2 219.8 221.3C217.2 219 216.6 217.6 216.2 213C215.8 208.4 216.1 207 218.1 204C219.5 202.1 221.6 200 223 199.3C224.3 198.6 227.1 198 229.1 198ZM411.6 198C413.4 198 416.1 198.6 417.6 199.4C419.2 200.1 421.2 202 422.3 203.6C423.3 205.2 424.1 208.3 424.1 210.5C424.1 212.7 423.4 216 422.5 217.8C421.6 219.5 419.5 221.7 417.9 222.5C416.2 223.3 413.8 224 412.4 224C411 224 408.5 223.3 406.9 222.5C405.2 221.7 403 219.5 401.9 217.8C400.8 216 399.9 212.8 399.9 210.8C399.9 208.7 400.6 205.6 401.4 204C402.2 202.4 404.1 200.3 405.6 199.5C407.2 198.7 409.9 198.1 411.6 198ZM531.4 201C532.5 201 534.4 201.7 535.7 202.7C537.3 203.9 538.2 205.9 538.6 209C539.1 212.7 538.8 213.9 537.1 215.8C535.7 217.2 533.7 218 531.6 218C529.9 218 527.3 217.3 525.9 216.3C524.5 215.4 523.1 214.1 522.7 213.6C522.3 213 521.9 211.4 521.9 210C521.9 208.6 522.6 206.5 523.5 205.2C524.4 203.9 526.1 202.5 527.3 202C528.4 201.5 530.3 201.1 531.4 201ZM111.4 202C114 202 115.7 202.8 117.9 205C119.5 206.6 120.9 208.8 120.9 209.8C120.8 210.7 119.1 213.2 117 215.3C114 218.2 112.3 219 109.5 219C107 219 105.1 218.2 103.4 216.5C101.9 215 100.9 212.8 100.9 211.1C100.9 209 101.8 207.3 104.4 205.1C106.9 202.9 109 202 111.4 202ZM491.4 214C493 214 496 214.5 497.9 215.1C499.8 215.8 502.9 217.3 504.6 218.6C506.4 219.9 508.5 222.2 509.3 223.8C510.1 225.3 511 228.1 511.4 230C512 232.7 511.6 234.8 509.5 239.3C507.3 244.2 506.2 245.4 501.9 247.5C499.1 248.9 495.2 250 493.1 250C491.1 250 487.4 248.8 484.9 247.4C482.4 246.1 479.4 243.5 478.2 241.7C477 240 475.7 236.7 475.3 234.5C474.9 232.1 475.2 228.9 476 226.5C476.7 224.3 478.3 221.2 479.4 219.6C480.6 218 483.1 216.1 485 215.4C486.9 214.7 489.7 214.1 491.4 214ZM149.1 215C151.8 215 155.4 215.6 157.1 216.4C158.9 217.1 161.6 219 163.1 220.6C164.6 222.2 166.3 224.7 166.8 226.3C167.4 227.8 167.9 230.5 167.9 232.3C167.9 234 166.9 237.5 165.6 240C164.2 242.9 161.9 245.4 158.9 247.2C156 249 153 250 150.6 250C148.6 250 145.2 249.2 143.1 248.1C141.1 247.1 138.2 244.9 136.6 243.1C135.1 241.4 133.5 238.3 133 236.3C132.3 233.5 132.4 231.3 133.5 228C134.3 225.5 135.6 222.5 136.4 221.3C137.2 220 139.4 218.1 141.1 217C143.2 215.7 146.2 215 149.1 215ZM74.4001 226.1C75.5001 226 78.6001 226.6 81.4001 227.3C84.1001 228.1 87.5001 229.3 88.9001 230C90.3001 230.7 93.5001 233.3 96.2001 235.9C99.2001 238.8 101.7 242.4 102.9 245.8C104 248.6 105.2 253.8 106.4 263.3L156.4 262.3L164.9 270.4C169.6 274.9 177.7 282.1 182.9 286.5C188.1 290.9 194 296.2 199.4 302.1L253.6 301.5L266.5 310.1C276.1 316.5 281 320.6 285.8 326.1C289.4 330.2 294 336.2 296.1 339.5C298.2 342.8 299.8 345.7 299.7 346C299.5 346.4 296.6 349.2 286.9 358L263.2 356.5L259.6 359.8C257.5 361.5 254.8 363.5 253.4 364C252 364.6 249.4 365 247.6 365C245.3 365 243.5 364.2 238.4 359H187.9L186.9 363.8C186.3 366.4 184.5 370.6 182.9 373.3C180.6 376.9 178.6 378.6 174.1 380.7C170 382.7 166.8 383.4 162.3 383.4C157.5 383.5 155.1 382.9 150.4 380.5C146.2 378.3 143.6 376.1 141.2 372.5C139.3 369.8 137 364.9 134.4 355.8L107.9 356.5L106.8 360C106.1 361.9 104.6 365.6 103.3 368.3C102 370.9 99.4001 374.6 97.6001 376.6C95.9001 378.6 92.4001 381.3 89.9001 382.5C87.4001 383.8 82.9001 385.3 79.9001 385.9C76.0001 386.8 73.1001 386.8 69.6001 386C67.0001 385.5 62.8001 383.9 60.1001 382.6C57.5001 381.3 54.1001 378.8 52.5001 376.9C50.9001 375 48.6001 371.5 47.4001 369C46.2001 366.5 44.9001 363.1 44.5001 361.5C44.1001 359.9 43.8001 355.5 43.8001 351.8C43.9001 347 44.6001 343.4 46.2001 339.8C47.5001 336.9 50.5001 332.5 53.0001 330C55.4001 327.6 59.9001 324.5 62.9001 323.1C67.2001 321.2 69.8001 320.7 75.1001 320.8C79.0001 320.9 83.7001 321.8 86.1001 322.8C88.5001 323.8 92.1001 325.9 94.3001 327.6C96.4001 329.2 99.4001 332.5 101 335C102.7 337.5 104.7 341.8 107.1 349.5H135.1L137.5 344.5C138.8 341.8 142 337.6 144.6 335.2C147.4 332.7 151.5 330.2 154.4 329.3C157.9 328.2 160.9 328 164.4 328.4C167.1 328.8 171 329.9 172.9 330.8C174.8 331.7 177.7 333.9 179.4 335.6C181 337.4 183.8 341.5 185.4 344.9C187.7 349.5 188.8 350.8 189.9 350.3C190.7 349.8 202.2 349.4 215.4 349.3C235.1 349.1 240 348.8 242.9 347.5C245.4 346.3 247.9 346 251.4 346.4C254.1 346.8 263.7 347.6 272.6 348.3C281.5 348.9 289.1 349.2 289.6 348.8C290 348.4 289.2 346.2 287.6 344C286.1 341.8 282.5 337.7 279.6 334.9C276.8 332.1 269.2 325.9 251.4 312.3L192.6 311.9C137.3 311.5 133.7 311.6 132.8 313.3C132.3 314.2 130.4 315.9 128.6 317C126.467 318.333 123.633 319 120.1 319C115.6 319 114.5 318.6 111.5 315.8C109.6 314 107.8 311.1 107.4 309.5C107 307.9 107 304.9 107.4 303C107.8 300.9 109.7 298 111.9 295.8C115.2 292.4 116.2 292 120.5 292C123.6 292 126.6 292.7 128.6 294C130.5 295.1 132.1 297.1 132.4 298.5C132.526 299.129 132.62 299.599 132.877 299.952C133.64 301 135.843 301 144.6 301C151.1 301 162.9 301.3 170.9 301.7C182.1 302.2 185.2 302.1 184.6 301.2C184.2 300.5 181.5 298.3 178.6 296.1C175.8 294 168.8 287.9 152.9 273H103.9L100.8 276.8C99.2001 278.8 96.8001 281.3 95.6001 282.3C94.4001 283.3 91.1001 285.3 88.4001 286.7C84.9001 288.5 81.3001 289.5 76.4001 289.8C71.3001 290.1 67.9001 289.8 63.9001 288.5C60.5001 287.3 56.7001 285 53.9001 282.5C51.2001 280 48.2001 275.6 46.4001 271.9C43.9001 266.5 43.4001 264.3 43.5001 258C43.5001 251.8 44.0001 249.5 46.3001 245C47.8001 242 50.2001 238.2 51.7001 236.7C53.2001 235.1 56.4001 232.6 58.9001 231.2C61.4001 229.7 65.4001 228 67.9001 227.3C70.4001 226.7 73.3001 226.1 74.4001 226.1ZM568.9 226.5C571.4 226.8 575.4 227.7 577.9 228.5C580.4 229.3 584.4 231.7 586.9 233.8C589.4 235.9 593 240.6 594.9 244.1C597.9 249.7 598.3 251.4 598.3 257.5C598.3 262.2 597.6 266.3 596.1 270C595 273 592.1 277.7 589.7 280.3C587.2 283.1 583.1 286.3 579.9 287.8C575.6 289.9 573 290.5 567.9 290.4C563.7 290.3 559.3 289.5 555.4 288C552.1 286.7 547.7 284 545.5 282.1C543.4 280.1 540.9 277.2 538.4 272.8L488 273.5L484.2 277.1C482.1 279 475.1 285.1 468.5 290.6C462 296 456.5 300.8 456.3 301.3C456.1 301.7 468.3 302 510.9 302L511.9 299C512.4 297.4 514.1 295.4 515.6 294.6C517.2 293.9 519.6 293 521.1 292.6C522.9 292.2 525.5 292.7 528.4 294C531.3 295.3 533.4 297.1 534.4 299C535.2 300.6 535.9 303.7 535.9 305.8C535.9 307.8 535 311 533.9 312.8C532.8 314.5 530.7 316.8 529.1 317.7C527.6 318.7 524.5 319.4 522.2 319.5C519.5 319.5 517.1 318.8 515.2 317.4C513.7 316.3 511.9 314.4 510.4 311L462.4 311.5C436 311.8 408.8 312.3 401.9 312.7C389.5 313.3 389.3 313.4 383.9 317.1C380.9 319.1 373.2 325.9 366.8 332.2C360.4 338.4 354.7 344.4 354.1 345.5C353.2 347.3 353.4 347.6 356.7 348.2C358.7 348.6 364.7 349 369.9 349C375.2 349 382 348.3 385.4 347.4C390.8 346 391.9 346 396.9 347.4C401.2 348.6 408 348.9 451.9 349L456.1 342.8C458.5 339.4 462.4 335.1 464.9 333.4C467.4 331.6 471.6 329.6 474.4 328.9C477.1 328.3 481.1 328 483.1 328.4C485.2 328.7 488.6 329.9 490.6 330.9C492.7 331.9 496 334.3 497.9 336.2C499.8 338.1 502.5 341.9 506.4 349.7L533.8 349.5L536 343.5C537.3 340.2 540.1 335.3 542.4 332.5C545 329.4 548.7 326.4 552.4 324.5C557.5 321.9 559.3 321.5 566.3 321.5C572.9 321.5 575.3 322 579.4 324C582.1 325.3 586 328 587.9 330C589.9 331.9 592.7 336 594.2 339C596 342.5 597.2 346.8 597.6 351C598 355.6 597.7 358.9 596.6 362.5C595.7 365.3 593.5 369.6 591.7 372.2C589.9 374.8 586.8 378 584.9 379.5C583 380.9 578.9 383 575.9 384.1C572.8 385.3 567.8 386.2 564.4 386.3C559.8 386.3 557 385.7 552.4 383.6C549.1 382.1 545.1 379.7 543.6 378.2C542 376.7 539.6 373.4 538.3 370.8C537 368.1 535.4 364 533.9 357L506.8 356.5L505.8 360.5C505.2 362.7 503.7 366.5 502.4 369C501.2 371.5 498.4 374.9 496.3 376.7C494.2 378.5 489.9 380.6 486.9 381.5C483.9 382.3 479.3 383 476.6 383C474 383 470.2 382.3 468.1 381.4C466.1 380.6 463.1 378.7 461.6 377.2C460 375.7 457.9 372.9 456.9 371C455.9 369.1 454.6 365.4 452.9 358L439.6 358.1C432.4 358.1 419.9 358.6 411.9 359.1C403.9 359.6 395.4 360.3 392.9 360.6C389.6 361 387 360.6 383.1 359.1C378.5 357.2 376.6 357.1 354.4 358.2L342.4 344.8L347.1 338.2C349.6 334.5 355.1 327.7 359.2 323C363.3 318.3 369 312.6 372 310.3C375 308 379.6 305.1 382.4 303.9C387.3 301.6 388.2 301.6 443.4 302.1L449.4 295.2C452.7 291.5 458.5 285.7 462.3 282.5C463.029 281.867 463.864 281.142 464.826 280.308C468.883 276.788 475.197 271.31 485.3 262.5L536.9 263L536.8 257.8C536.8 254.9 537.5 250.5 538.4 248C539.3 245.5 541.7 241.3 543.8 238.5C545.8 235.8 549.3 232.4 551.5 231C553.6 229.7 557.4 228 559.9 227.3C562.4 226.6 566.4 226.3 568.9 226.5ZM431.9 263C433.8 263 436.5 263.8 437.9 264.7C439.3 265.6 440.9 267.1 441.6 268C442.3 268.8 442.9 271 442.9 272.8C442.9 274.5 442.3 277.5 441.6 279.3C440.8 281 438.8 283.7 437.1 285.3C435 287.1 432.8 288 430.6 288C428.9 288 425.5 286.8 423.1 285.5C419.9 283.6 418.7 282.1 417.9 279.3C417.4 277.2 416.9 274.7 416.9 273.8C416.9 272.8 417.4 271.1 417.9 270C418.4 268.9 421 266.9 423.6 265.5C426.3 264.2 430 263.1 431.9 263ZM217.2 268.1C219 268.6 221.2 269.8 222.2 270.8C223.5 272.1 224 274.1 224 278.5C224 281.9 224.6 285.6 225.4 287C226.2 288.4 226.9 290 226.9 290.5C226.9 291.1 225.9 290.5 224.7 289.2C222.5 287 222.1 286.9 217.4 288C214.6 288.6 210.9 288.9 209.1 288.6C207.2 288.2 205.1 286.9 203.9 285.3C202.7 283.7 201.8 281.6 201.8 280.5C201.8 279.4 203.1 276.7 204.7 274.4C206.2 272.2 209 269.7 210.8 268.8C213.2 267.6 214.9 267.5 217.2 268.1ZM418.5 284C418.7 284 418.9 284.7 418.9 285.5C418.9 286.3 417 289.1 414.6 291.7C412.3 294.2 408.5 297.1 406.1 298.2C403.8 299.2 401.7 299.8 401.4 299.5C401.1 299.2 401.7 297.5 402.7 295.8C403.7 294 405.8 291.6 407.5 290.4C409.2 289.2 411.5 288.5 413.1 288.7C415.3 288.9 416.2 288.4 417 286.5C417.6 285.1 418.3 284 418.5 284ZM322.9 354.3C327.2 354.5 330.9 355.4 333.9 356.9C336.4 358.2 339.5 360.2 340.7 361.3C342 362.5 344.3 365.5 345.7 368C347.5 371.2 348.4 374.4 348.7 379C349 383.9 348.6 386.8 347 391C345.9 394 343.7 398.1 342.1 400C340.5 401.9 336.4 405 332.8 406.8C328.7 408.9 325 410 322.4 410C320.2 410 316.1 409.4 313.4 408.6C309.8 407.6 307 405.8 303.6 402.3C300.5 399.3 298.1 395.5 296.8 392C295.1 387.7 294.8 385.1 295.3 380C295.6 376.1 296.8 371.5 298.2 368.5C299.6 365.8 302.4 362 304.5 360.2C306.7 358.5 310.2 356.3 312.4 355.5C314.8 354.6 318.9 354.2 322.9 354.3ZM443.4 385C447 385 449.4 385.6 451.9 387.2C453.8 388.5 456.2 391.3 457.3 393.5C458.7 396.4 459 398.6 458.5 401.5C458.2 403.7 457 407 455.9 408.8C454.8 410.5 452.4 412.9 450.6 414C448.5 415.3 445.6 416 442.4 416C439.2 416 436.3 415.3 434.1 414C432.4 412.9 430.2 411 429.4 409.8C428.6 408.5 427.5 405.9 426.9 404C426.3 401.7 426.3 399.3 426.9 397C427.4 395.1 429.3 392.1 431.1 390.4C432.9 388.7 435.3 386.8 436.4 386.2C437.5 385.6 440.6 385 443.4 385ZM198.6 386C202.9 386 204.5 386.5 207.1 388.8C208.8 390.3 210.8 393 211.6 394.8C212.3 396.5 212.9 399.4 212.9 401C212.9 402.7 212 405.8 210.9 408C209.5 410.7 207.6 412.7 204.6 414.1C202.3 415.3 198.8 416.3 196.9 416.3C195 416.3 191.9 415.5 190.1 414.6C188.4 413.7 186 411.5 184.9 409.8C183.8 408 182.6 405.2 182.3 403.5C181.8 401.4 182.3 399 184 395.5C185.4 392.5 187.8 389.6 189.8 388.3C192.3 386.6 194.7 386 198.6 386ZM136.6 392C138.4 392 141.2 392.7 142.9 393.5C144.5 394.3 146.8 396.5 147.9 398.3C149.1 400.2 149.9 403.3 149.9 405.8C149.9 409.3 149.3 410.7 146.1 414.1C142.9 417.6 141.7 418.3 137.4 418.7C133 419.2 132 418.9 129 416.4C127.2 414.8 125 412.3 124.3 410.8C123.5 409.2 122.9 406.8 122.9 405.3C122.9 403.7 123.8 401 124.9 399.3C126 397.5 128.4 395.1 130.1 394C131.9 392.9 134.9 392 136.6 392ZM506.4 392C508.7 392 511.8 392.9 513.6 394C515.4 395.1 517.6 397.5 518.5 399.3C519.6 401.5 520 403.8 519.5 406.5C519.2 408.7 518.2 411.5 517.4 412.8C516.6 414 514.4 415.9 512.6 417C510.9 418.1 507.9 419 506.1 419C504.4 419 501.5 418.3 499.9 417.5C498.2 416.7 496 414.8 494.9 413.3C493.7 411.7 492.6 409.1 492.2 407.5C491.8 405.2 492.3 403.3 494.5 399.8C496.1 397.2 498.5 394.4 499.9 393.6C501.3 392.7 504.2 392.1 506.4 392ZM78.8001 398C80.8001 398 83.7001 398.9 85.4001 399.9C87.0001 401 89.2001 403.3 90.3001 405.2C91.6001 407.6 92.0001 409.5 91.5001 412.3C91.2001 414.3 89.8001 417.4 88.4001 419C86.9001 420.8 84.2001 422.5 81.6001 423.2C78.4001 424 76.5001 424 73.6001 423.2C71.6001 422.5 69.0001 420.8 67.9001 419.3C66.7001 417.7 65.6001 414.9 65.2001 413C64.8001 410.5 65.2001 408.5 66.5001 406C67.5001 404.1 69.9001 401.5 71.8001 400.3C73.8001 398.9 76.7001 398 78.8001 398ZM564.4 398C567.7 398.1 569.1 398.8 572.1 401.8C575.5 405.1 575.8 406 575.9 411C575.9 414.3 575.3 417.4 574.4 418.8C573.6 420 571.5 421.7 569.9 422.5C568.2 423.3 565.3 424 563.4 424C561.5 424 558.5 423.2 556.9 422.3C555.2 421.3 553.2 419 552.4 417.3C551.6 415.5 550.9 412.7 550.9 411C550.9 409.4 551.6 406.7 552.4 405C553.2 403.4 555.4 401.1 557.1 400C559 398.9 562.1 398 564.4 398ZM294.6 421.1C295.4 421 296.1 422.6 296.4 424.8C296.7 426.8 297.9 433 299.1 438.5C299.261 439.302 299.421 440.1 299.578 440.882L299.578 440.882C300.498 445.455 301.3 449.446 301.3 450.3C301.4 451.7 300.1 452.7 297 453.8C294.6 454.8 292.4 456 292.2 456.5C292 457 293.7 460.6 296 464.5C298.3 468.4 301.6 473.3 303.4 475.5C305.1 477.7 309.5 485.1 313 491.9C316.5 498.7 320 504.7 320.8 505.4C321.8 506.2 322.6 505.9 324.1 504C325.2 502.6 327.9 497.9 330.2 493.5C332.4 489.1 336.9 481.2 340.1 476C343.4 470.8 347.4 464.6 349 462.3C350.6 459.9 351.9 457.7 351.9 457.3C351.9 456.8 350 455.8 343.4 453.5L343.5 448.5C343.5 445.7 344.4 438.5 345.5 432.3L345.537 432.083C347.4 421.199 347.417 421.103 349.9 421.6C351.3 421.9 356.9 424.4 362.4 427C367.9 429.7 374.2 433.4 376.3 435.2C378.5 437.1 381.6 441.4 383.5 445.3C385.4 449 388.9 459.5 391.4 468.8C393.8 478 397.2 491.8 398.8 499.5C399.565 502.965 400.35 506.652 401.156 510.435L401.157 510.443L401.158 510.444C402.142 515.065 403.156 519.828 404.2 524.5L398.4 535.5C395.2 541.5 389.7 551.3 386.2 557.3C382.8 563.2 379.3 568.3 378.6 568.7C377.9 569.1 375.3 567 371.9 563.3C368.9 560 365.6 557 364.6 556.6C363.6 556.2 362.9 556.5 362.9 557.3C362.9 557.9 364.7 562.2 366.9 566.8C369.1 571.3 370.9 575.9 370.9 577C370.9 578.1 370.4 579.2 369.9 579.5C369.4 579.8 368.9 583.5 368.9 587.8C368.9 592 368.6 596.4 368.4 597.5C367.9 599.1 366.4 599.7 360.1 600.7C358.131 601.028 355.57 601.422 352.981 601.82L352.97 601.822C350.039 602.273 347.076 602.729 344.9 603.1C340 603.8 330.9 604 318.9 603.6C308.7 603.3 294.5 602.4 287.4 601.6C280.2 600.7 274.2 600 273.9 600C273.6 600 273.4 595.8 273.4 590.6C273.4 583.1 273.1 580.8 271.7 579.4C270.7 578.3 269.9 577.2 269.9 576.8C269.9 576.3 271.3 573.9 273.1 571.3C274.8 568.6 277.1 564.7 278.1 562.5C279.1 560.3 279.9 557.3 279.9 555.8C279.9 554.2 279.4 553 278.9 553C278.3 553 276.5 554.5 274.9 556.3C273.2 558 270.2 561.8 268.1 564.7C266.1 567.6 264.2 569.8 263.9 569.6C263.6 569.4 260 563.2 255.8 555.9C251.6 548.5 246 538.2 243.3 533C238.9 524.3 238.6 523.3 239.8 520.5C240.4 518.9 242.3 510.8 244 502.5C245.6 494.3 249.2 480.1 251.9 471C254.6 461.9 258.8 450.5 261.3 445.5C263.9 440.2 267 435.3 269 433.6C270.9 432 274.2 429.7 276.4 428.4C278.6 427.1 283.3 424.9 286.9 423.6C290.5 422.2 294 421.1 294.6 421.1ZM321.4 422C324.2 422 327.9 422.8 329.8 423.8C331.7 424.7 333.4 426 333.6 426.5C333.8 427.1 332.8 428.9 331.4 430.5C329.9 432.1 328.1 434.4 327.3 435.5C326.2 437.2 326.1 439.8 327 451.5C327.6 459.2 327.9 470 327.7 475.5C327.4 483.6 326.9 486.5 324.9 490.8C323.5 493.6 322.1 496 321.6 496C321.2 496 320 493.9 318.9 491.3C317.7 488.6 316.4 484.8 315.9 482.8C315.2 480.2 315.4 473.2 316.4 460.8C317.2 450.7 318.1 441.6 318.4 440.5C318.8 439.2 317.8 436.8 315.5 433.5C313.5 430.8 311.8 427.7 311.8 426.8C311.7 425.9 312.7 424.4 314 423.5C315.4 422.7 318.5 422 321.4 422ZM313.4 55.8C313.7 54.1 315.3 52.2 317.3 51C319 49.9 321.4 49 322.5 49C323.6 49 325.6 50.1 327 51.6C328.7 53.4 329.6 55.6 329.9 58.8C330.2 62.6 329.8 64 327.9 66.2C326.6 67.7 324.4 69.2 323 69.5C321.3 69.9 319.6 69.5 317.8 68.1C316.2 66.9 314.5 64.3 313.9 62.3C313.3 60.2 313 57.3 313.4 55.8ZM387.3 77.6C387.6 74.6 388.6 72.1 389.7 71.3C390.7 70.5 392.6 70 393.9 70.2C395.2 70.4 397.2 71.6 398.2 73C399.3 74.4 400.4 77.5 400.7 80C401.1 83.1 400.8 84.8 399.9 85.6C399.1 86.3 396.6 87 394.3 87.4C390.4 87.9 389.9 87.8 388.3 85.3C387.1 83.2 386.8 81.3 387.3 77.6ZM246.4 71.8C245.8 72.2 244.8 73.5 244.1 74.7C243.5 76 243 78.7 243 80.7C242.9 82.8 243.5 85 244.2 85.7C244.9 86.3 246.6 87.1 248 87.5C249.4 87.9 251.7 87.9 253.3 87.6C255.9 87 256 86.7 256 81.2C256 77.8 255.4 74.6 254.5 73.2C253.5 71.8 252 71 250.3 71C248.7 71 247 71.4 246.4 71.8ZM331 87L331.1 80C331.1 73.3 331.2 73 333.1 74C334.1 74.5 335.7 76 336.5 77.3C337.4 78.5 337.9 81.1 337.8 83C337.5 86.2 337.2 86.5 331 87ZM308.5 76.5C306.5 78.5 306.1 79.9 306.3 83.3C306.5 87.3 306.6 87.5 310 87.8L313.5 88.1C313 77.2 312.5 74 311.9 74C311.4 74 309.8 75.1 308.5 76.5ZM316.1 89.5L315.8 81.7L315.5 73.9L327.5 74.5L327.8 81.3C328 87.7 327.9 88 325.8 88C324.5 88 321.8 88.4 316.1 89.5ZM191.2 92.3C190 93 188.3 94.7 187.4 96C186.2 97.7 185.9 99.5 186.3 101.8C186.7 103.5 188 105.7 189.2 106.5C190.5 107.3 192.9 108 194.7 108C197 108 198.4 107.3 199.5 105.8C200.3 104.5 201 101.9 201 100C201 98 200.2 95.3 199 93.8C197.9 92.2 196.2 91 195.2 91C194.3 91.1 192.5 91.6 191.2 92.3ZM441.5 98.3C441.7 97.3 442.9 95.5 444 94.3C445.1 93 446.9 92 448 92C449.1 92 450.8 92.4 451.7 92.9C452.7 93.4 454.1 95 454.8 96.6C455.6 98.2 455.9 100.7 455.6 102.3C455.2 104 453.8 105.6 451.7 106.6C449.9 107.5 447.5 107.9 446.2 107.6C444.9 107.3 443.4 105.6 442.5 103.5C441.7 101.6 441.2 99.2 441.5 98.3ZM124 131.6C121.2 133.7 120.6 134.7 120.8 137.6C120.9 139.5 121.6 142.2 122.4 143.8C123.1 145.3 124.6 147.3 125.6 148.3C126.9 149.6 128.3 150 130.2 149.6C131.7 149.3 134.1 147.8 135.5 146.3C137 144.7 138 142.3 138 140.8C138 139.2 137.5 136.9 137 135.5C136.4 134.1 135.1 132.1 134 131C132.9 129.9 131 129 129.7 129C128.5 129 125.9 130.2 124 131.6ZM504.6 136.8C504.9 135.5 506.4 133.3 507.8 131.8C509.4 130 511.4 129 513.2 129C515.1 129 516.8 130 518.5 132C520.3 134.2 521 136.2 521 139.3C521 142.4 520.4 144.1 518.8 145.7C517.5 146.9 515.1 148.2 513.5 148.5C511.3 149 510 148.7 508.6 147.3C507.6 146.3 506.1 144 505.3 142.3C504.6 140.5 504.3 138 504.6 136.8ZM260.6 135.8C259.6 136.8 259.1 138.4 259.4 139.5C259.7 140.6 260.7 142.3 261.7 143.3C262.7 144.3 264.6 145 265.9 144.8C267.4 144.6 269.1 143.4 269.9 141.9C271.3 139.5 271.3 139 269.7 136.6C268.5 134.8 267.1 134 265.1 134C263.6 134 261.5 134.8 260.6 135.8ZM371.6 140.8C370.8 139.6 370.8 138.5 371.7 136.6C372.6 134.7 373.7 134 375.7 134C377.2 134 379.3 134.7 380.3 135.7C381.3 136.7 381.9 138.6 381.8 140C381.6 141.667 380.567 142.833 378.7 143.5C376.833 144.167 375.367 144.167 374.3 143.5C373.4 143 372.2 141.7 371.6 140.8ZM269.4 149.3C269 149.9 269.3 152.2 270.1 154.3C271 156.7 272 158 273 157.8C274 157.6 274.4 156.5 274.1 154.5C273.9 152.8 273.4 150.7 272.9 149.8C272.4 148.8 271.6 148 271 148C270.5 148 269.8 148.6 269.4 149.3ZM367.9 155.4C367.8 154 368.3 152 368.9 150.9C369.5 149.9 370.5 149 371 149C371.5 149 372 151 372 153.5C372 157.3 371.7 158 370 158C368.5 158 368 157.3 367.9 155.4ZM376.2 153.3C376.5 157.1 376.8 157.5 379.2 157.8C380.7 157.9 382.9 157.6 384 157C385.333 156.333 386 155 386 153C386 151.2 385.4 149.8 384.5 149.5C383.7 149.2 381.4 149 379.4 149H375.9L376.2 153.3ZM256.1 156.6C256 155.5 256.1 153.5 256.4 152.3C256.8 150.7 257.8 150 259.7 150C261.2 150 263 150.5 263.6 151.3C264.3 152 265.3 153.8 265.9 155.3C266.8 157.7 266.7 158.1 265.2 158C264.766 158 264.432 157.922 264.187 157.743C264.395 158.033 264.671 158.227 265 158.3C265.8 158.6 265.3 158.8 263.8 158.9C262.488 158.977 261.414 158.637 260.855 158.065C260.657 158.619 259.829 158.974 258.7 158.8C257.4 158.7 256.4 157.8 256.1 156.6ZM260.9 155.3C260.851 155.642 260.826 156.08 260.825 156.52C260.932 156.556 261.057 156.617 261.2 156.7C262.1 157.3 262.2 157 261.7 155.8C261.448 155.106 261.394 154.65 261.54 154.484C261.165 154.493 260.9 154.791 260.9 155.3ZM262.761 154.567C262.702 154.605 262.632 154.627 262.554 154.635C262.623 154.619 262.693 154.597 262.761 154.567ZM521.6 158.8C521.9 162.5 522.3 166.1 522.6 166.8C522.8 167.5 524.2 167.9 525.7 167.8C528.1 167.6 528.5 167.1 528.8 164.1C528.9 162.1 528.6 159.3 528 157.8C527.4 156.3 525.6 154.4 524 153.5L521 152L521.6 158.8ZM137.8 160.5C137.7 157.1 138 154.1 138.4 153.8C138.8 153.5 139.8 153.5 140.8 153.8C141.7 154.1 143.1 155.1 143.8 156C144.5 156.8 145 159.9 145 162.8C145 167.7 144.8 168.1 142.3 168.7C140.4 169.1 139.3 168.8 138.8 167.9C138.4 167.2 137.9 163.8 137.8 160.5ZM507 155.9C507 157.3 507.4 160.9 507.8 163.8L507.808 163.86C508.5 169.001 508.513 169.1 512 169.1C513.9 169 516.5 168.8 517.8 168.6C519.7 168.1 520 167.4 520 162.8C520 159.9 519.5 156.8 518.8 155.9C518 155 515.4 154.1 512.2 153.7C506.9 153.2 506.9 153.2 507 155.9ZM114.6 160.8C115 159 116 156.8 116.8 155.8C117.6 154.9 118.7 154.1 119.1 154.1C119.5 154.1 120.1 157.6 120.5 161.8C120.8 166.1 120.9 169.7 120.8 169.9C120.6 170.1 119.3 170 117.8 169.6C115.8 169.2 114.8 168.3 114.5 166.6C114.2 165.2 114.3 162.6 114.6 160.8ZM124.4 161.9L124.5 170.1C130.3 170.1 132.7 169.8 133.5 169.6C134.6 169.2 135 167.5 135 162.6C135 159 134.7 155.9 134.3 155.6C133.8 155.4 131.4 154.9 128.9 154.5L124.3 153.8L124.4 161.9ZM497.7 162.8C497.9 160.2 498.5 157.1 499 156C499.6 154.9 500.7 154 501.5 154C502.6 154 503 155.3 503 158.8C503 161.4 503.4 164.6 503.8 165.9C504.4 168.1 504.3 168.2 501 167.9C499.422 167.72 498.556 167.621 498.098 167.136C497.541 166.545 497.59 165.381 497.7 162.8ZM147.1 227.6C145.6 228.6 144.8 230 144.9 231.6C144.9 232.9 145.4 234.9 146 236C146.7 237.5 148 238 150.5 238C153 238 154.4 237.4 155.5 235.8C156.3 234.5 157 232.7 157 231.8C157 230.8 156.1 229.1 155 228C153.9 226.9 152.2 226 151.2 226C150.3 226 148.4 226.7 147.1 227.6ZM487.8 230.9C487.7 230.2 488.5 228.9 489.5 227.9C490.5 226.8 492.5 226 493.9 226C495.3 226.1 497.3 226.9 498.3 227.8C499.3 228.7 500 230.6 500 232C500 233.4 499.4 235.3 498.7 236.2C498 237.2 496.1 238 494.2 238C491.6 238 490.7 237.5 489.5 235C488.7 233.4 487.9 231.5 487.8 230.9ZM70.0001 238.1C69.1001 238.6 67.9001 240.6 67.2001 242.5C66.2001 245.5 66.3001 246.6 67.7001 249.7C68.7001 251.7 70.1001 253.8 70.8001 254.4C71.8001 255.2 73.3001 255.2 75.8001 254.5C78.6001 253.8 79.9001 252.6 81.2001 249.8C82.2001 247.7 82.8001 245.2 82.5001 244.3C82.3001 243.3 81.2001 241.3 80.0001 239.8C78.5001 237.7 77.1001 237 74.7001 237.1C73.0001 237.1 70.8001 237.5 70.0001 238.1ZM559.9 245.6C559.8 244.3 561 241.8 562.5 240.1C564.3 238 566.1 237 568.1 237C570.2 237 571.7 237.9 573.5 240.3C574.9 242.2 575.9 244.9 576 246.8C576 249.2 575.2 250.7 573 252.5C571.3 253.9 569.2 255 568.2 255C567.3 255 565 253.4 563.2 251.5C561.5 249.6 559.9 246.9 559.9 245.6ZM61.2001 260.5C59.3001 261.8 59.0001 262.8 59.2001 267.8C59.5001 273 59.7001 273.6 62.2001 274.5C63.7001 275.1 65.2001 275.3 65.5001 275C65.9001 274.7 65.9001 271 65.6001 266.8C65.3001 262.5 64.7001 259 64.2001 259C63.8001 259 62.5001 259.7 61.2001 260.5ZM69.5001 275L69.8001 267.3L70.1001 259.5L82.0001 260V275H69.5001ZM84.4001 262.7C84.7001 264.8 85.0001 268.3 85.0001 270.3C85.0001 273.8 85.2001 274.1 87.8001 273.8C90.3001 273.6 90.5001 273.2 90.4001 269.6C90.4001 267.4 89.7001 264.2 88.9001 262.6C88.2001 260.9 86.7001 259.4 85.7001 259.2C84.1001 258.9 83.9001 259.4 84.4001 262.7ZM552.2 270.1C552 268.1 552.5 264.9 553.4 262.8C554.2 260.8 555.3 259.1 555.7 259.1C556.2 259.1 556.6 262.5 556.8 266.6C557 273.8 556.9 274.1 554.8 273.8C553 273.6 552.4 272.8 552.2 270.1ZM561.489 267.739L561.489 267.745L561.49 267.755C561.708 269.923 561.9 271.838 561.9 272.6C562 274.4 562.6 274.5 568.8 274.2L575.5 273.9C574.2 263.6 573.8 260.5 573.7 260.5C573.623 260.423 571.828 260.228 569.364 259.959C568.627 259.879 567.829 259.792 567 259.7L560.5 259.1L561.2 264.8C561.292 265.777 561.393 266.782 561.489 267.739ZM578.6 270.8C578.3 269.5 578 266.4 578 263.8C578 259.7 578.2 259.2 579.7 259.7C580.7 260 582.1 261 582.8 261.9C583.5 262.8 584.1 265.7 584.1 268.3C584 272.7 583.9 273 581.5 273C579.8 273 578.9 272.4 578.6 270.8ZM71.0001 333.4C69.7001 334.2 67.9001 336.1 67.2001 337.6C66.4001 339.4 66.1001 341.7 66.6001 343.5C66.9001 345.2 68.6001 347.8 70.2001 349.3C72.0001 351 74.1001 352 76.0001 352C78.0001 352 79.9001 351.1 81.6001 349.3C83.0001 347.8 84.4001 345.6 84.7001 344.5C85.0001 343.4 84.8001 341.2 84.3001 339.5C83.8001 337.9 82.3001 335.8 80.9001 334.8C79.6001 333.9 77.4001 332.9 76.0001 332.6C74.7001 332.3 72.4001 332.7 71.0001 333.4ZM559.2 336.8C559.8 335.5 561.1 334 562 333.3C562.8 332.6 565.2 332.1 567.3 332.1C570.4 332 571.4 332.6 573.2 335.3C574.4 337.1 575.4 340 575.5 341.7C575.5 344 574.7 345.8 572.5 348C570.6 350 568.6 351.1 566.8 351C565.1 351 562.9 349.9 561 348C559 346 558 344 558 342C558 340.4 558.6 338 559.2 336.8ZM156.6 340.1C154.3 341.7 153.6 342.9 153.8 345.1C153.9 346.7 155.2 349.2 156.5 350.5C157.9 351.9 160 353 161.1 353C162.2 353 164.2 351.9 165.6 350.5C166.9 349.2 168 347.1 168 346C168 344.9 166.9 342.7 165.5 341C164.2 339.4 162.3 338 161.3 338.1C160.3 338.1 158.2 339 156.6 340.1ZM473 344C473.9 342.2 475.2 340.4 476 339.9C476.9 339.5 478.8 339.1 480.3 339.1C482.1 339 483.7 339.9 485.1 341.8C486.5 343.6 487 345.3 486.6 347C486.2 348.4 485 350.3 483.8 351.3C482.5 352.3 480.8 353.1 479.8 353.1C478.8 353 476.6 351.7 474.8 350.2C471.6 347.3 471.6 347.2 473 344ZM70.321 370.762C70.3706 371.394 70.4001 371.769 70.4001 371.8C70.5001 372 73.0001 371.8 76.0001 371.5L81.5001 370.9L81.2001 356.4L69.3001 356.1L69.8001 363.8C70.0061 366.753 70.2121 369.375 70.3209 370.761L70.321 370.762ZM86.6001 370.3C86.4001 369.9 85.8001 366.5 85.4001 362.8C85.0001 359.1 85.0001 356 85.4001 356C85.7001 356 86.9001 356.5 88.0001 357C89.1001 357.6 90.5001 359.5 91.0001 361.3C91.6001 363.1 92.1001 366 92.0001 367.8C92.0001 370.6 91.7001 371 89.5001 371C88.2001 371 86.8001 370.7 86.6001 370.3ZM559.6 364.5C559.9 368.9 560.3 372.7 560.4 372.8C560.5 373 563.1 372.9 566.3 372.6L572 372V357L558.9 356.5L559.6 364.5ZM576 372V364C576 357.6 576.3 356 577.5 356C578.4 356 579.7 357.3 580.4 358.8C581.2 360.3 582 363.8 582.5 371.5L576 372ZM61.1001 358C60.1001 358.5 59.5001 361 59.2001 364.7C59.0001 368.9 59.2001 370.7 60.2001 371.3C60.9001 371.7 62.8001 372 64.3001 372C66.0001 372 66.9001 371.6 66.6001 370.8C66.4001 370.1 66.0001 366.7 65.7001 363.3C65.3001 359.1 64.6667 357 63.8001 357C63.1001 357.1 61.9001 357.5 61.1001 358ZM169.5 369.5C169.3 368.7 169 365.6 169 362.5C169 359.5 169.5 357 170 357C170.6 357 171.7 357.7 172.5 358.5C173.4 359.4 174.3 361.9 174.7 364.3C175 366.6 175 369.1 174.7 369.8C174.3 370.5 173.1 371 172 371C170.9 371 169.8 370.4 169.5 369.5ZM550.5 359.2C549.4 360.7 548.9 363.3 548.9 366.7C549 370.5 549.5 372.2 550.5 372.5C551.4 372.8 552.7 373 553.5 373C554.7 373 555 371.6 555 366.5C555 363 554.8 359.4 554.5 358.5C554.3 357.7 553.6 357 553.1 357C552.6 357 551.4 358 550.5 359.2ZM149.9 365.2C149.8 362 150.1 359.1 150.5 358.7C151 358.3 152 358 152.7 358C153.6 358 154.1 360 154.3 364.5C154.5 370.7 154.4 371 152.3 371C150.2 371 150 370.5 149.9 365.2ZM157 364V370C165.7 370 166 369.8 165.5 367.8C165.3 366.5 165.1 364.5 165 363.3C165 362 164.4 360.4 163.5 359.5C162.7 358.7 160.9 358 159.5 358C157.1 358 157 358.3 157 364ZM466.8 365.7C466.7 362.2 467.1 360 468 359.2C468.8 358.6 470 358 470.7 358C471.4 358 472.5 358.8 473 359.8C473.5 360.7 474 363.6 474.5 370.5L467 371L466.8 365.7ZM485 360.8C485 362.3 485.4 365 485.8 366.8C486.4 369.3 487.1 370.1 488.8 370.1C490.7 370 491 369.5 491 366.5C491 364.6 490.6 361.9 490 360.5C489.4 359 488.2 358 487 358C485.5 358 485 358.7 485 360.8ZM265 513.5C266.6 510.2 269.3 503.1 271 497.7L274.1 487.9L275.5 495.7C276.3 500 277.5 508 278 513.5C278.6 519 279 528.4 279 534.3C279 540.8 278.6 545 278 545C277.5 545 273.7 539.6 269.5 533C265.4 526.4 262 520.7 262.1 520.3C262.1 519.9 263.4 516.8 265 513.5ZM369.2 488.5C369.1 489 368.3 493.5 367.5 498.5C366.6 503.4 365.5 513.1 365 520C364.5 526.9 364.4 535.5 364.8 539.2C365.2 543 365.7 546 366 546C366.3 546 369.8 540.2 373.8 533.2C381 520.7 381.1 520.4 379.6 517.5C378.8 515.8 376.4 509.5 374.2 503.5C372 497.4 370 491.4 369.8 490C369.5 488.6 369.2 487.9 369.2 488.5ZM320.6 555.8C319.2 554.8 318.9 553.8 319.4 551.7C319.8 550.1 320.7 549 321.8 549C322.7 548.9 324.4 549.9 325.5 551C327.1 552.7 327.3 553.5 326.4 554.8C325.8 555.7 324.7 556.6 323.9 556.8C323.1 556.9 321.7 556.5 320.6 555.8ZM328 88V82.5C328 79.5 328.2 77 328.5 77C328.8 77 329 79.7 329 89L320.5 88.7L328 88ZM476.4 362.3C476.7 364 477 366.5 477 367.7C477 369.7 477.5 370 480.5 370C483.2 370 483.9 369.6 483.5 368.5C483.2 367.7 483 365.4 483 363.5C483 360.3 482.8 360 480.5 360.5C479.1 360.8 478.1 360.6 478.3 360C478.5 359.4 477.9 359 477.1 359C476 359 475.9 359.8 476.4 362.2V362.3ZM320.8 521.6C320.4 521.1 320 520 320 519.3C320 518.7 320.9 518.1 322 518.1C323.5 518.1 324 518.8 324 520.6C324 522.1 323.5 523 322.8 522.8C322.1 522.7 321.2 522.1 320.8 521.6ZM320.7 526.8C320.4 527.3 320.6 528.6 321.1 529.8C321.6 531.1 322.5 532.1 323 532.1C323.5 532.1 324.5 531.1 325.1 529.8C325.9 528.1 325.9 527.4 324.8 526.9C324.1 526.5 323.7 526.5 323 526.5C322.892 526.5 322.768 526.498 322.634 526.495C321.898 526.481 320.869 526.461 320.7 526.8Z" fill="#0E1F34"/>
<path d="M315.5 89.5L315.4 84.5L315.3 79.5L316 89L324.5 89.7L315.5 89.5Z" fill="#76919C"/>
<path d="M82 275L82.1 271.3V271.2L82.1063 271.096C82.3 267.898 82.3043 267.829 82.7 270.5C82.9 272.1 82.9 274.1 82.6 274.7C82.2 275.6 79.8 275.9 68.5 275.6L82 275Z" fill="#76919C"/>
<path d="M81.5 368.6L81 361.9C80.7 358.2 80.8 355.5 81.3 355.9C81.7 356.3 81.9 359.3 81.5 368.6Z" fill="#76919C"/>
<path d="M572 357.1L566.3 356.8L560.6 356.4L572.5 356.6V372.1L572 357.1Z" fill="#76919C"/>
<path d="M483 363.7C483 360.8 482.6 360.1 480.8 359.8C479.4 359.6 479.7 359.4 481.5 359.5C484.4 359.6 484.5 359.8 484.3 363.4C484.1 365.7 484.6 367.7 485.5 368.7C486.3 369.5 488.1 370.1 489.4 369.9C490.7 369.8 491.6 370 491.4 370.4C491.2 370.8 487.4 371.2 483 371.2C476 371.2 475 370.9 475.1 369.4C475.2 368.5 475.6 366.5 476 365.2C476.7 362.9 476.8 363.1 476.9 366.4C477 370 477.2 370.2 480.5 370.2C483.2 370.2 483.9 369.8 483.5 368.7C483.2 367.8 483 365.6 483 363.7Z" fill="#76919C"/>
</svg>
